<?xml version="1.0" encoding="UTF-8" standalone="no"?>
<!DOCTYPE svg PUBLIC "-//W3C//DTD SVG 1.1//EN" "http://www.w3.org/Graphics/SVG/1.1/DTD/svg11.dtd">
<svg width="100%" height="100%" viewBox="0 0 430 112" version="1.1" xmlns="http://www.w3.org/2000/svg" xmlns:xlink="http://www.w3.org/1999/xlink" xml:space="preserve" xmlns:serif="http://www.serif.com/" style="fill-rule:evenodd;clip-rule:evenodd;stroke-miterlimit:10;">
    <g transform="matrix(1,0,0,1,0.00537109,-2.66974)">
        <g opacity="0.41">
            <path d="M93.096,75.209L93.096,61.894C93.096,55.559 98.102,50.291 104.427,49.768L104.427,47.33C104.427,46.922 104.607,46.545 104.926,46.283C105.171,46.084 105.484,45.975 105.798,45.975C105.888,45.975 105.978,45.985 106.063,46.001L107.403,46.262L108.317,45.122C108.12,44.724 108.014,44.285 108.014,43.835C108.014,42.208 109.359,40.889 111.006,40.889C112.654,40.889 113.998,42.213 113.998,43.835C113.998,45.457 112.654,46.78 111.006,46.78C110.841,46.78 110.677,46.765 110.517,46.738L109.034,48.585C108.774,48.915 108.381,49.098 107.955,49.098C107.865,49.098 107.775,49.087 107.69,49.072L107.169,48.967L107.169,49.757C113.483,50.296 118.479,55.559 118.479,61.884L118.479,75.199L93.096,75.199L93.096,75.209Z" style="fill-rule:nonzero;"/>
            <path d="M111.022,41.784C112.175,41.784 113.111,42.705 113.111,43.84C113.111,44.975 112.175,45.896 111.022,45.896C110.73,45.896 110.448,45.839 110.198,45.729L108.343,48.041C108.253,48.156 108.115,48.219 107.971,48.219C107.939,48.219 107.913,48.219 107.881,48.208L106.276,47.895L106.276,50.615C112.537,50.699 117.586,55.716 117.586,61.894L117.586,74.32L94.004,74.32L94.004,61.894C94.004,55.705 99.064,50.688 105.335,50.615L105.335,47.33C105.335,47.188 105.399,47.057 105.505,46.974C105.59,46.906 105.697,46.869 105.803,46.869C105.835,46.869 105.861,46.869 105.893,46.88L107.78,47.246L109.438,45.179C109.125,44.818 108.933,44.353 108.933,43.84C108.933,42.705 109.869,41.784 111.022,41.784ZM111.022,40C108.875,40 107.121,41.721 107.121,43.84C107.121,44.227 107.179,44.609 107.296,44.97L107.047,45.284L106.249,45.127C106.106,45.101 105.957,45.085 105.808,45.085C105.282,45.085 104.767,45.268 104.357,45.598C103.831,46.027 103.523,46.655 103.523,47.33L103.523,48.972C97.135,49.909 92.192,55.376 92.192,61.894L92.192,76.098L119.387,76.098L119.387,61.894C119.387,55.92 115.237,50.824 109.619,49.297C109.667,49.244 109.715,49.197 109.757,49.14L110.937,47.67L111.022,47.67C113.169,47.67 114.923,45.948 114.923,43.83C114.923,41.711 113.174,39.99 111.022,39.99L111.022,40Z" style="fill:white;fill-rule:nonzero;"/>
            <path d="M120.418,68.021C119.557,68.021 118.856,67.33 118.856,66.483L118.856,63.03C118.856,62.182 119.557,61.492 120.418,61.492L123.74,61.492C124.362,61.492 124.925,61.858 125.175,62.423C125.419,62.988 125.302,63.642 124.877,64.087L121.556,67.54C121.258,67.848 120.859,68.021 120.429,68.021L120.418,68.021Z" style="fill-rule:nonzero;"/>
            <path d="M123.735,62.386C124.309,62.386 124.606,63.061 124.208,63.475L120.886,66.927C120.753,67.069 120.583,67.131 120.413,67.131C120.078,67.131 119.754,66.875 119.754,66.483L119.754,63.03C119.754,62.674 120.046,62.386 120.408,62.386L123.729,62.386M123.729,60.602L120.408,60.602C119.047,60.602 117.942,61.691 117.942,63.03L117.942,66.483C117.942,67.822 119.047,68.91 120.413,68.91C121.093,68.91 121.726,68.638 122.199,68.152L125.52,64.699C126.201,63.992 126.387,62.962 125.993,62.072C125.605,61.183 124.713,60.602 123.729,60.602Z" style="fill:white;fill-rule:nonzero;"/>
            <path d="M91.161,67.953C90.731,67.953 90.332,67.78 90.034,67.471L86.713,64.019C86.282,63.574 86.165,62.92 86.41,62.355C86.654,61.79 87.218,61.424 87.845,61.424L91.166,61.424C92.027,61.424 92.729,62.114 92.729,62.962L92.729,66.415C92.729,66.849 92.553,67.246 92.235,67.534C91.942,67.801 91.56,67.947 91.161,67.947L91.161,67.953Z" style="fill-rule:nonzero;"/>
            <path d="M91.166,62.318C91.528,62.318 91.82,62.606 91.82,62.962L91.82,66.415C91.82,66.807 91.496,67.063 91.161,67.063C90.996,67.063 90.826,67.001 90.688,66.859L87.366,63.406C86.973,62.993 87.265,62.318 87.839,62.318L91.161,62.318M91.161,60.534L87.839,60.534C86.851,60.534 85.963,61.11 85.575,62.004C85.187,62.894 85.373,63.929 86.048,64.631L89.37,68.083C89.843,68.575 90.476,68.842 91.156,68.842C92.516,68.842 93.627,67.754 93.627,66.415L93.627,62.962C93.627,61.622 92.522,60.534 91.161,60.534Z" style="fill:white;fill-rule:nonzero;"/>
            <path d="M100.371,64.427C101.463,64.427 102.348,63.555 102.348,62.48C102.348,61.406 101.463,60.534 100.371,60.534C99.279,60.534 98.394,61.406 98.394,62.48C98.394,63.555 99.279,64.427 100.371,64.427Z" style="fill:none;fill-rule:nonzero;stroke:white;stroke-width:1.18px;"/>
            <path d="M111.213,64.427C112.305,64.427 113.19,63.555 113.19,62.48C113.19,61.406 112.305,60.534 111.213,60.534C110.121,60.534 109.236,61.406 109.236,62.48C109.236,63.555 110.121,64.427 111.213,64.427Z" style="fill:none;fill-rule:nonzero;stroke:white;stroke-width:1.18px;"/>
            <path d="M111.91,69.349L99.675,69.349C99.394,69.349 99.165,69.574 99.165,69.852L99.165,70.113C99.165,70.391 99.394,70.615 99.675,70.615L111.91,70.615C112.191,70.615 112.42,70.391 112.42,70.113L112.42,69.852C112.42,69.574 112.191,69.349 111.91,69.349Z" style="fill:white;fill-rule:nonzero;"/>
            <path d="M111.213,62.601C111.281,62.601 111.336,62.547 111.336,62.48C111.336,62.414 111.281,62.36 111.213,62.36C111.146,62.36 111.091,62.414 111.091,62.48C111.091,62.547 111.146,62.601 111.213,62.601Z" style="fill:none;fill-rule:nonzero;stroke:white;stroke-width:1.18px;"/>
            <path d="M100.345,62.674C100.412,62.674 100.467,62.62 100.467,62.554C100.467,62.487 100.412,62.433 100.345,62.433C100.277,62.433 100.223,62.487 100.223,62.554C100.223,62.62 100.277,62.674 100.345,62.674Z" style="fill:none;fill-rule:nonzero;stroke:white;stroke-width:1.18px;"/>
            <path d="M128.04,76.773L128.13,76.773C129.533,76.773 130.676,77.898 130.676,79.279L130.676,92.881C130.676,94.263 129.533,95.387 128.13,95.387L128.04,95.387C126.637,95.387 125.494,94.263 125.494,92.881L125.494,79.279C125.494,77.898 126.637,76.773 128.04,76.773Z" style="fill-rule:nonzero;"/>
            <path d="M128.13,77.668C129.033,77.668 129.772,78.395 129.772,79.284L129.772,92.887C129.772,93.776 129.033,94.503 128.13,94.503L128.04,94.503C127.136,94.503 126.397,93.776 126.397,92.887L126.397,79.284C126.397,78.395 127.136,77.668 128.04,77.668L128.13,77.668ZM128.13,75.884L128.04,75.884C126.137,75.884 124.59,77.406 124.59,79.279L124.59,92.881C124.59,94.754 126.137,96.277 128.04,96.277L128.13,96.277C130.033,96.277 131.579,94.754 131.579,92.881L131.579,79.279C131.579,77.406 130.033,75.884 128.13,75.884Z" style="fill:white;fill-rule:nonzero;"/>
            <path d="M133.461,80.331L133.551,80.331C134.954,80.331 136.097,81.455 136.097,82.837L136.097,89.564C136.097,90.946 134.954,92.07 133.551,92.07L133.461,92.07C132.057,92.07 130.915,90.946 130.915,89.564L130.915,82.837C130.915,81.455 132.057,80.331 133.461,80.331Z" style="fill-rule:nonzero;"/>
            <path d="M133.551,81.22C134.454,81.22 135.193,81.947 135.193,82.837L135.193,89.565C135.193,90.454 134.454,91.181 133.551,91.181L133.46,91.181C132.557,91.181 131.818,90.454 131.818,89.565L131.818,82.837C131.818,81.947 132.557,81.22 133.46,81.22L133.551,81.22ZM133.551,79.436L133.46,79.436C131.558,79.436 130.011,80.958 130.011,82.831L130.011,89.559C130.011,91.432 131.558,92.955 133.46,92.955L133.551,92.955C135.453,92.955 137,91.432 137,89.559L137,82.831C137,80.958 135.453,79.436 133.551,79.436Z" style="fill:white;fill-rule:nonzero;"/>
            <path d="M77.449,80.331L77.54,80.331C78.943,80.331 80.085,81.455 80.085,82.837L80.085,89.564C80.085,90.946 78.943,92.07 77.54,92.07L77.449,92.07C76.046,92.07 74.904,90.946 74.904,89.564L74.904,82.837C74.904,81.455 76.046,80.331 77.449,80.331Z" style="fill-rule:nonzero;"/>
            <path d="M77.54,81.22C78.443,81.22 79.182,81.947 79.182,82.837L79.182,89.565C79.182,90.454 78.443,91.181 77.54,91.181L77.449,91.181C76.546,91.181 75.807,90.454 75.807,89.565L75.807,82.837C75.807,81.947 76.546,81.22 77.449,81.22L77.54,81.22ZM77.54,79.436L77.449,79.436C75.547,79.436 74,80.958 74,82.831L74,89.559C74,91.432 75.547,92.955 77.449,92.955L77.54,92.955C79.442,92.955 80.989,91.432 80.989,89.559L80.989,82.831C80.989,80.958 79.442,79.436 77.54,79.436Z" style="fill:white;fill-rule:nonzero;"/>
            <path d="M83.476,76.773L83.567,76.773C84.97,76.773 86.112,77.898 86.112,79.279L86.112,92.881C86.112,94.263 84.97,95.387 83.567,95.387L83.476,95.387C82.073,95.387 80.93,94.263 80.93,92.881L80.93,79.279C80.93,77.898 82.073,76.773 83.476,76.773Z" style="fill-rule:nonzero;"/>
            <path d="M83.566,77.668C84.47,77.668 85.209,78.395 85.209,79.284L85.209,92.887C85.209,93.776 84.47,94.503 83.566,94.503L83.476,94.503C82.573,94.503 81.834,93.776 81.834,92.887L81.834,79.284C81.834,78.395 82.573,77.668 83.476,77.668L83.566,77.668ZM83.566,75.884L83.476,75.884C81.573,75.884 80.027,77.406 80.027,79.279L80.027,92.881C80.027,94.754 81.573,96.277 83.476,96.277L83.566,96.277C85.469,96.277 87.016,94.754 87.016,92.881L87.016,79.279C87.016,77.406 85.469,75.884 83.566,75.884Z" style="fill:white;fill-rule:nonzero;"/>
            <path d="M111.946,108.11C111.256,108.11 110.554,107.854 109.975,107.389C109.406,106.933 109.241,106.013 108.96,104.485C108.742,103.303 108.476,101.833 107.982,100.572C107.594,99.578 106.961,98.924 106.403,98.343C106.207,98.139 106.026,97.951 105.872,97.762L105.67,97.762C105.516,97.951 105.33,98.139 105.138,98.343C104.58,98.924 103.948,99.578 103.56,100.572C103.066,101.833 102.795,103.303 102.582,104.485C102.3,106.013 102.136,106.939 101.567,107.389C100.988,107.854 100.286,108.11 99.595,108.11C98.469,108.11 97.517,107.451 97.103,106.395C96.577,105.05 96.438,102.664 96.608,101.226C96.747,100.069 97.05,98.871 97.475,97.757L97.358,97.757C97.209,97.909 97.044,98.061 96.864,98.228C96.305,98.741 95.673,99.321 95.248,100.232C94.722,101.351 94.403,102.434 94.142,103.308C93.792,104.49 93.563,105.275 92.984,105.678C92.447,106.06 91.831,106.258 91.214,106.258C90.066,106.258 89.093,105.547 88.743,104.454C88.339,103.188 88.27,101.833 88.53,100.42C88.695,99.541 88.966,98.631 89.317,97.762C87.94,97.731 86.835,96.617 86.835,95.256L86.835,77.385C86.835,76.004 87.977,74.879 89.38,74.879L122.23,74.879C123.633,74.879 124.776,76.004 124.776,77.385L124.776,95.256C124.776,96.638 123.633,97.762 122.23,97.762L122.151,97.762C122.539,98.688 122.836,99.661 123.012,100.614C123.272,102.026 123.203,103.381 122.799,104.647C122.448,105.746 121.481,106.452 120.328,106.452C119.711,106.452 119.1,106.253 118.558,105.871C117.984,105.469 117.75,104.684 117.399,103.501C117.139,102.628 116.82,101.545 116.294,100.425C115.869,99.515 115.236,98.934 114.684,98.421C114.476,98.228 114.28,98.05 114.11,97.867C114.513,98.95 114.8,100.106 114.933,101.231C115.103,102.664 114.965,105.05 114.439,106.395C114.025,107.451 113.073,108.11 111.946,108.11Z" style="fill-rule:nonzero;"/>
            <path d="M122.225,75.769C123.129,75.769 123.867,76.496 123.867,77.385L123.867,95.256C123.867,96.146 123.129,96.873 122.225,96.873L120.716,96.873C121.316,97.956 121.853,99.337 122.119,100.776C122.342,101.99 122.31,103.203 121.933,104.38C121.683,105.155 121.04,105.563 120.328,105.563C119.913,105.563 119.477,105.427 119.084,105.149C118.468,104.715 118.266,102.502 117.118,100.054C116.299,98.301 114.832,97.59 114.498,96.873L112.691,96.873C113.307,98.092 113.839,99.688 114.035,101.336C114.189,102.628 114.072,104.862 113.594,106.075C113.297,106.834 112.653,107.216 111.947,107.216C111.474,107.216 110.979,107.043 110.544,106.693C109.922,106.196 109.863,102.895 108.822,100.242C108.12,98.458 106.749,97.605 106.334,96.863L105.197,96.863C104.782,97.605 103.411,98.458 102.71,100.242C101.668,102.889 101.61,106.196 100.988,106.693C100.552,107.043 100.058,107.216 99.585,107.216C98.878,107.216 98.235,106.829 97.937,106.075C97.464,104.862 97.342,102.628 97.496,101.336C97.693,99.688 98.224,98.092 98.841,96.873L96.927,96.873C96.449,97.532 95.163,98.265 94.414,99.866C93.266,102.314 93.069,104.527 92.447,104.961C92.054,105.238 91.618,105.374 91.204,105.374C90.491,105.374 89.843,104.966 89.599,104.192C89.226,103.015 89.189,101.801 89.412,100.587C89.662,99.233 90.156,97.93 90.715,96.878L89.37,96.878C88.466,96.878 87.728,96.151 87.728,95.262L87.728,77.39C87.728,76.501 88.466,75.774 89.37,75.774L122.22,75.774M122.22,73.99L89.375,73.99C87.473,73.99 85.926,75.512 85.926,77.385L85.926,95.256C85.926,96.69 86.835,97.919 88.11,98.416C87.924,98.981 87.76,99.599 87.637,100.263C87.35,101.817 87.43,103.318 87.876,104.72C88.35,106.201 89.657,107.153 91.209,107.153C92.017,107.153 92.809,106.897 93.505,106.405C94.334,105.819 94.616,104.872 95.004,103.559C95.179,102.968 95.381,102.283 95.657,101.555C95.556,102.963 95.668,105.233 96.247,106.714C96.8,108.121 98.075,109 99.585,109C100.483,109 101.392,108.67 102.13,108.079C102.954,107.42 103.146,106.374 103.464,104.642C103.672,103.496 103.932,102.073 104.4,100.891C104.719,100.075 105.25,99.515 105.771,98.976C106.286,99.515 106.818,100.07 107.142,100.886C107.605,102.068 107.865,103.491 108.078,104.637C108.396,106.368 108.582,107.415 109.412,108.074C110.15,108.665 111.054,108.995 111.957,108.995C113.467,108.995 114.742,108.121 115.295,106.708C115.842,105.306 115.97,103.198 115.895,101.78C116.166,102.492 116.363,103.167 116.538,103.747C116.926,105.061 117.208,106.007 118.037,106.593C118.733,107.08 119.525,107.336 120.333,107.336C121.885,107.336 123.198,106.384 123.665,104.904C124.112,103.496 124.192,102 123.905,100.446C123.782,99.787 123.607,99.112 123.384,98.453C124.723,97.987 125.685,96.727 125.685,95.251L125.685,77.38C125.685,75.507 124.138,73.985 122.236,73.985L122.22,73.99Z" style="fill:white;fill-rule:nonzero;"/>
            <path d="M95.625,83.506C96.534,83.506 97.273,82.91 97.273,82.188C97.273,81.466 96.529,80.875 95.62,80.875C94.711,80.875 93.972,81.471 93.972,82.193C93.972,82.915 94.717,83.506 95.625,83.506Z" style="fill:white;fill-rule:nonzero;"/>
            <path d="M95.625,83.574C94.717,83.574 93.978,84.171 93.978,84.893C93.978,85.615 94.722,86.206 95.631,86.206C96.54,86.206 97.278,85.609 97.278,84.887C97.278,84.16 96.534,83.569 95.625,83.574Z" style="fill:white;fill-rule:nonzero;"/>
            <path d="M98.963,80.802C99.872,80.802 100.61,80.205 100.61,79.483C100.61,78.761 99.866,78.17 98.958,78.17C98.049,78.17 97.31,78.767 97.31,79.489C97.31,80.211 98.054,80.802 98.963,80.802Z" style="fill:white;fill-rule:nonzero;"/>
            <path d="M99.011,83.501C99.92,83.501 100.658,82.905 100.658,82.183C100.658,81.461 99.914,80.87 99.006,80.87C98.097,80.87 97.358,81.466 97.358,82.188C97.358,82.91 98.102,83.501 99.011,83.501Z" style="fill:white;fill-rule:nonzero;"/>
            <path d="M99.016,86.201C99.925,86.201 100.664,85.604 100.664,84.882C100.664,84.16 99.92,83.564 99.011,83.569C98.102,83.569 97.363,84.165 97.363,84.888C97.363,85.61 98.107,86.201 99.016,86.201Z" style="fill:white;fill-rule:nonzero;"/>
            <path d="M99.016,86.269C98.107,86.269 97.368,86.865 97.368,87.587C97.368,88.309 98.113,88.9 99.021,88.9C99.93,88.9 100.669,88.304 100.669,87.582C100.669,86.86 99.925,86.269 99.016,86.269Z" style="fill:white;fill-rule:nonzero;"/>
            <path d="M102.386,80.797C103.294,80.797 104.033,80.2 104.033,79.478C104.033,78.756 103.289,78.165 102.38,78.165C101.471,78.165 100.733,78.761 100.733,79.483C100.733,80.205 101.477,80.797 102.386,80.797Z" style="fill:white;fill-rule:nonzero;"/>
            <path d="M102.396,83.496C103.305,83.496 104.044,82.9 104.044,82.178C104.044,81.456 103.3,80.865 102.391,80.865C101.482,80.865 100.743,81.461 100.743,82.183C100.743,82.905 101.487,83.496 102.396,83.496Z" style="fill:white;fill-rule:nonzero;"/>
            <path d="M102.401,86.196C103.31,86.196 104.049,85.599 104.049,84.877C104.049,84.155 103.305,83.564 102.396,83.564C101.487,83.564 100.749,84.16 100.749,84.882C100.749,85.604 101.493,86.196 102.401,86.196Z" style="fill:white;fill-rule:nonzero;"/>
            <path d="M102.407,88.895C103.316,88.895 104.054,88.299 104.054,87.577C104.054,86.855 103.31,86.263 102.401,86.263C101.493,86.263 100.754,86.86 100.754,87.582C100.754,88.304 101.498,88.895 102.407,88.895Z" style="fill:white;fill-rule:nonzero;"/>
            <path d="M102.407,88.963C101.498,88.963 100.759,89.559 100.759,90.281C100.759,91.003 101.503,91.594 102.412,91.594C103.321,91.594 104.06,90.998 104.06,90.276C104.06,89.554 103.316,88.963 102.407,88.963Z" style="fill:white;fill-rule:nonzero;"/>
            <path d="M105.776,83.491C106.685,83.491 107.424,82.894 107.424,82.172C107.424,81.45 106.68,80.859 105.771,80.859C104.862,80.859 104.124,81.456 104.124,82.178C104.124,82.9 104.868,83.491 105.776,83.491Z" style="fill:white;fill-rule:nonzero;"/>
            <path d="M105.782,86.19C106.69,86.19 107.429,85.594 107.429,84.872C107.429,84.15 106.685,83.559 105.776,83.559C104.867,83.559 104.129,84.155 104.129,84.877C104.129,85.599 104.873,86.19 105.782,86.19Z" style="fill:white;fill-rule:nonzero;"/>
            <path d="M105.792,88.89C106.701,88.89 107.44,88.293 107.44,87.571C107.44,86.85 106.696,86.258 105.787,86.258C104.878,86.258 104.139,86.855 104.139,87.577C104.139,88.299 104.883,88.89 105.792,88.89Z" style="fill:white;fill-rule:nonzero;"/>
            <path d="M105.798,91.589C106.706,91.589 107.445,90.993 107.445,90.271C107.445,89.549 106.701,88.958 105.792,88.958C104.884,88.958 104.145,89.554 104.145,90.276C104.145,90.998 104.889,91.589 105.798,91.589Z" style="fill:white;fill-rule:nonzero;"/>
            <path d="M105.797,91.652C104.889,91.652 104.15,92.249 104.15,92.971C104.15,93.692 104.894,94.284 105.803,94.284C106.712,94.284 107.45,93.687 107.45,92.965C107.45,92.243 106.706,91.652 105.797,91.652Z" style="fill:white;fill-rule:nonzero;"/>
            <path d="M109.114,80.786C110.023,80.786 110.761,80.19 110.761,79.468C110.761,78.746 110.017,78.155 109.108,78.155C108.2,78.155 107.461,78.751 107.461,79.473C107.461,80.195 108.205,80.786 109.114,80.786Z" style="fill:white;fill-rule:nonzero;"/>
            <path d="M109.162,83.486C110.07,83.486 110.809,82.889 110.809,82.167C110.809,81.445 110.065,80.854 109.156,80.854C108.248,80.854 107.509,81.45 107.509,82.172C107.509,82.894 108.253,83.486 109.162,83.486Z" style="fill:white;fill-rule:nonzero;"/>
            <path d="M109.167,86.185C110.076,86.185 110.815,85.589 110.815,84.867C110.815,84.145 110.071,83.554 109.162,83.554C108.253,83.554 107.514,84.15 107.514,84.872C107.514,85.594 108.258,86.185 109.167,86.185Z" style="fill:white;fill-rule:nonzero;"/>
            <path d="M109.172,88.884C110.081,88.884 110.82,88.288 110.82,87.566C110.82,86.844 110.076,86.253 109.167,86.253C108.258,86.253 107.52,86.849 107.52,87.571C107.52,88.293 108.264,88.884 109.172,88.884Z" style="fill:white;fill-rule:nonzero;"/>
            <path d="M109.172,88.947C108.264,88.947 107.525,89.544 107.525,90.266C107.525,90.988 108.269,91.579 109.178,91.579C110.087,91.579 110.825,90.982 110.825,90.26C110.825,89.538 110.081,88.947 109.172,88.947Z" style="fill:white;fill-rule:nonzero;"/>
            <path d="M112.536,80.781C113.445,80.781 114.184,80.184 114.184,79.462C114.184,78.74 113.44,78.149 112.531,78.149C111.622,78.149 110.884,78.746 110.884,79.468C110.884,80.19 111.628,80.781 112.536,80.781Z" style="fill:white;fill-rule:nonzero;"/>
            <path d="M112.542,83.48C113.451,83.48 114.189,82.884 114.189,82.162C114.189,81.44 113.445,80.849 112.536,80.849C111.628,80.849 110.889,81.445 110.889,82.167C110.889,82.889 111.633,83.48 112.542,83.48Z" style="fill:white;fill-rule:nonzero;"/>
            <path d="M112.553,86.18C113.461,86.18 114.2,85.583 114.2,84.861C114.2,84.139 113.456,83.548 112.547,83.548C111.638,83.548 110.9,84.144 110.9,84.867C110.9,85.588 111.644,86.185 112.553,86.18Z" style="fill:white;fill-rule:nonzero;"/>
            <path d="M112.553,86.248C111.644,86.248 110.905,86.844 110.905,87.566C110.905,88.288 111.649,88.879 112.558,88.879C113.467,88.879 114.205,88.283 114.205,87.561C114.205,86.839 113.461,86.248 112.553,86.248Z" style="fill:white;fill-rule:nonzero;"/>
            <path d="M115.927,83.475C116.836,83.475 117.575,82.879 117.575,82.157C117.575,81.435 116.831,80.844 115.922,80.844C115.013,80.844 114.274,81.44 114.274,82.162C114.274,82.884 115.018,83.475 115.927,83.475Z" style="fill:white;fill-rule:nonzero;"/>
            <path d="M115.927,83.543C115.019,83.543 114.28,84.139 114.28,84.861C114.28,85.583 115.024,86.175 115.933,86.175C116.841,86.175 117.58,85.578 117.58,84.856C117.58,84.134 116.836,83.543 115.927,83.543Z" style="fill:white;fill-rule:nonzero;"/>
        </g>
    </g>
    <g transform="matrix(1,0,0,1,0.00537109,-2.66974)">
        <g opacity="0.41">
            <path d="M371.628,80.009L371.718,80.009C373.177,80.009 374.365,81.189 374.365,82.649L374.365,89.547C374.365,91.001 373.182,92.187 371.718,92.187L371.628,92.187C370.169,92.187 368.98,91.001 368.98,89.547L368.98,82.649C368.98,81.194 370.163,80.009 371.628,80.009Z" style="fill-rule:nonzero;"/>
            <path d="M371.723,80.992C372.636,80.992 373.385,81.739 373.385,82.649L373.385,89.547C373.385,90.457 372.636,91.204 371.723,91.204L371.633,91.204C370.721,91.204 369.972,90.457 369.972,89.547L369.972,82.649C369.972,81.739 370.721,80.992 371.633,80.992L371.723,80.992ZM371.729,79.032L371.633,79.032C369.634,79.032 368.006,80.655 368.006,82.649L368.006,89.547C368.006,91.541 369.634,93.164 371.633,93.164L371.723,93.164C373.723,93.164 375.357,91.541 375.357,89.547L375.357,82.649C375.357,80.655 373.729,79.032 371.729,79.032Z" style="fill:white;fill-rule:nonzero;"/>
            <path d="M376.506,76.364L376.596,76.364C378.055,76.364 379.244,77.543 379.244,79.004L379.244,92.956C379.244,94.411 378.061,95.596 376.596,95.596L376.506,95.596C375.047,95.596 373.858,94.417 373.858,92.956L373.858,79.004C373.858,77.549 375.047,76.364 376.506,76.364Z" style="fill-rule:nonzero;"/>
            <path d="M376.596,77.341C377.509,77.341 378.258,78.088 378.258,78.998L378.258,92.951C378.258,93.861 377.509,94.608 376.596,94.608L376.506,94.608C375.593,94.608 374.844,93.861 374.844,92.951L374.844,78.998C374.844,78.088 375.593,77.341 376.506,77.341L376.596,77.341ZM376.596,75.381L376.506,75.381C374.506,75.381 372.878,77.004 372.878,78.998L372.878,92.951C372.878,94.945 374.506,96.568 376.506,96.568L376.596,96.568C378.596,96.568 380.224,94.945 380.224,92.951L380.224,78.998C380.224,77.004 378.596,75.381 376.596,75.381Z" style="fill:white;fill-rule:nonzero;"/>
            <path d="M425.282,80.009L425.372,80.009C426.831,80.009 428.02,81.189 428.02,82.649L428.02,89.547C428.02,91.001 426.837,92.187 425.372,92.187L425.282,92.187C423.823,92.187 422.635,91.001 422.635,89.547L422.635,82.649C422.635,81.194 423.818,80.009 425.282,80.009Z" style="fill-rule:nonzero;"/>
            <path d="M425.372,80.992C426.285,80.992 427.034,81.739 427.034,82.649L427.034,89.547C427.034,90.457 426.285,91.204 425.372,91.204L425.282,91.204C424.37,91.204 423.62,90.457 423.62,89.547L423.62,82.649C423.62,81.739 424.37,80.992 425.282,80.992L425.372,80.992ZM425.372,79.032L425.282,79.032C423.282,79.032 421.655,80.655 421.655,82.649L421.655,89.547C421.655,91.541 423.282,93.164 425.282,93.164L425.372,93.164C427.372,93.164 429,91.541 429,89.547L429,82.649C429,80.655 427.372,79.032 425.372,79.032Z" style="fill:white;fill-rule:nonzero;"/>
            <path d="M381.874,98.023C380.415,98.023 379.227,96.837 379.227,95.383L379.227,77.055C379.227,75.6 380.415,74.415 381.874,74.415L384.736,74.415L384.736,62.131C384.736,54.598 390.881,48.465 398.441,48.465C405.961,48.465 412.14,54.593 412.214,62.119L412.214,74.415L415.131,74.415C416.59,74.415 417.779,75.6 417.779,77.055L417.779,95.383C417.779,96.837 416.59,98.023 415.131,98.023L381.874,98.023ZM398.435,56.755C395.81,56.755 393.675,58.468 393.675,60.575C393.675,62.681 395.81,64.366 398.435,64.366C401.06,64.366 403.195,62.653 403.195,60.547C403.195,58.44 401.06,56.755 398.435,56.755Z" style="fill-rule:nonzero;"/>
            <path d="M398.435,49.448C405.448,49.448 411.154,55.138 411.228,62.131L411.228,75.398L415.131,75.398C416.044,75.398 416.793,76.145 416.793,77.055L416.793,95.383C416.793,96.293 416.044,97.04 415.131,97.04L381.874,97.04C380.961,97.04 380.212,96.293 380.212,95.383L380.212,77.055C380.212,76.145 380.961,75.398 381.874,75.398L385.721,75.398L385.721,62.131C385.721,55.104 391.433,49.448 398.441,49.448M398.441,65.344C401.612,65.344 404.186,63.175 404.186,60.541C404.186,57.907 401.612,55.772 398.441,55.772C395.269,55.772 392.695,57.94 392.695,60.575C392.695,63.209 395.269,65.344 398.441,65.344ZM398.441,47.487C390.34,47.487 383.75,54.059 383.75,62.131L383.75,73.432L381.874,73.432C379.874,73.432 378.246,75.055 378.246,77.049L378.246,95.377C378.246,97.371 379.874,98.994 381.874,98.994L415.131,98.994C417.131,98.994 418.759,97.371 418.759,95.377L418.759,77.049C418.759,75.055 417.131,73.432 415.131,73.432L413.194,73.432L413.194,62.131C413.115,54.048 406.496,47.482 398.435,47.482L398.441,47.487ZM398.441,63.383C396.396,63.383 394.667,62.097 394.667,60.575C394.667,59.053 396.396,57.738 398.441,57.738C400.486,57.738 402.215,59.024 402.215,60.547C402.215,62.069 400.486,63.383 398.441,63.383Z" style="fill:white;fill-rule:nonzero;"/>
            <path d="M420.404,76.364L420.494,76.364C421.953,76.364 423.142,77.543 423.142,79.004L423.142,92.956C423.142,94.411 421.959,95.596 420.494,95.596L420.404,95.596C418.945,95.596 417.757,94.417 417.757,92.956L417.757,79.004C417.757,77.549 418.94,76.364 420.404,76.364Z" style="fill-rule:nonzero;"/>
            <path d="M420.494,77.341C421.407,77.341 422.156,78.088 422.156,78.998L422.156,92.951C422.156,93.861 421.407,94.608 420.494,94.608L420.404,94.608C419.491,94.608 418.742,93.861 418.742,92.951L418.742,78.998C418.742,78.088 419.491,77.341 420.404,77.341L420.494,77.341ZM420.494,75.381L420.404,75.381C418.404,75.381 416.776,77.004 416.776,78.998L416.776,92.951C416.776,94.945 418.404,96.568 420.404,96.568L420.494,96.568C422.494,96.568 424.122,94.945 424.122,92.951L424.122,78.998C424.122,77.004 422.494,75.381 420.494,75.381Z" style="fill:white;fill-rule:nonzero;"/>
            <path d="M398.356,64.428C397.562,64.428 396.779,64.158 396.159,63.67C394.621,62.456 394.357,60.221 395.573,58.687C396.249,57.839 397.263,57.351 398.367,57.351C398.508,57.351 398.643,57.356 398.784,57.373L400.069,57.519L399.59,58.716C399.517,58.901 399.562,59.092 399.702,59.204C399.764,59.255 399.843,59.277 399.939,59.277C400.04,59.277 400.142,59.243 400.226,59.193L401.274,58.48L401.708,59.67C402.136,60.844 401.933,62.119 401.167,63.085C400.491,63.939 399.471,64.428 398.367,64.428L398.356,64.428Z" style="fill-rule:nonzero;"/>
            <path d="M398.362,58.334C398.463,58.334 398.565,58.339 398.666,58.35C398.435,58.929 398.587,59.586 399.083,59.979C399.331,60.176 399.629,60.266 399.928,60.266C400.226,60.266 400.525,60.176 400.767,60.007C401.066,60.822 400.947,61.76 400.378,62.479C399.872,63.114 399.117,63.451 398.351,63.451C397.793,63.451 397.23,63.271 396.762,62.906C395.658,62.035 395.466,60.406 396.34,59.305C396.841,58.671 397.596,58.339 398.356,58.339M398.356,56.379C396.954,56.379 395.652,57.002 394.791,58.086C393.241,60.047 393.574,62.9 395.54,64.445C396.334,65.068 397.331,65.417 398.345,65.417C399.748,65.417 401.049,64.793 401.916,63.703C402.891,62.468 403.15,60.839 402.609,59.345L401.742,56.969L401.184,57.351L401.443,56.705L398.88,56.413C398.705,56.39 398.531,56.385 398.351,56.385L398.356,56.379Z" style="fill:white;fill-rule:nonzero;"/>
            <path d="M388.194,80.633C389.113,80.633 389.867,81.239 389.867,81.981C389.867,82.722 389.118,83.329 388.2,83.334C387.282,83.334 386.527,82.728 386.527,81.986C386.527,81.245 387.276,80.638 388.194,80.633ZM388.206,86.098C387.288,86.098 386.533,85.491 386.533,84.75C386.533,84.008 387.282,83.402 388.2,83.396C389.118,83.396 389.873,84.003 389.873,84.744C389.873,85.486 389.124,86.092 388.206,86.098ZM391.569,77.858C392.487,77.858 393.242,78.465 393.242,79.206C393.242,79.947 392.492,80.554 391.574,80.56C390.656,80.56 389.901,79.953 389.901,79.212C389.901,78.47 390.65,77.864 391.569,77.858ZM391.614,80.627C392.532,80.627 393.287,81.234 393.287,81.975C393.287,82.717 392.538,83.323 391.619,83.329C390.701,83.329 389.946,82.722 389.946,81.981C389.946,81.239 390.696,80.633 391.614,80.627ZM391.619,83.396C392.538,83.396 393.292,84.003 393.292,84.744C393.292,85.486 392.543,86.092 391.625,86.098C390.707,86.098 389.952,85.491 389.952,84.75C389.952,84.008 390.701,83.402 391.619,83.396ZM391.631,88.861C390.712,88.861 389.958,88.255 389.958,87.513C389.958,86.772 390.707,86.16 391.625,86.16C392.543,86.16 393.298,86.766 393.298,87.508C393.298,88.249 392.549,88.861 391.631,88.861ZM395.027,77.852C395.946,77.852 396.7,78.459 396.7,79.2C396.7,79.942 395.951,80.548 395.033,80.554C394.115,80.554 393.36,79.947 393.36,79.206C393.36,78.465 394.109,77.858 395.027,77.852ZM395.033,80.621C395.951,80.621 396.706,81.228 396.706,81.97C396.706,82.711 395.957,83.323 395.039,83.323C394.12,83.323 393.366,82.717 393.366,81.975C393.366,81.234 394.115,80.621 395.033,80.621ZM395.039,83.391C395.957,83.391 396.712,83.997 396.712,84.739C396.712,85.48 395.962,86.087 395.044,86.092C394.126,86.092 393.371,85.486 393.371,84.744C393.371,84.003 394.12,83.396 395.039,83.391ZM395.044,86.16C395.962,86.16 396.717,86.766 396.717,87.508C396.717,88.249 395.968,88.856 395.05,88.861C394.132,88.861 393.377,88.255 393.377,87.513C393.377,86.772 394.126,86.165 395.044,86.16ZM395.055,91.625C394.137,91.625 393.382,91.018 393.382,90.277C393.382,89.536 394.132,88.923 395.05,88.923C395.968,88.923 396.723,89.53 396.723,90.271C396.723,91.013 395.974,91.625 395.055,91.625ZM398.452,80.616C399.37,80.616 400.125,81.222 400.125,81.964C400.125,82.705 399.376,83.312 398.458,83.318C397.54,83.318 396.785,82.711 396.785,81.97C396.785,81.228 397.534,80.621 398.452,80.616ZM398.458,83.385C399.376,83.385 400.131,83.992 400.131,84.733C400.131,85.474 399.382,86.081 398.463,86.087C397.545,86.087 396.79,85.48 396.79,84.739C396.79,83.997 397.54,83.391 398.458,83.385ZM398.463,86.154C399.382,86.154 400.136,86.761 400.136,87.502C400.136,88.244 399.387,88.85 398.469,88.856C397.551,88.856 396.796,88.249 396.796,87.508C396.796,86.766 397.545,86.16 398.463,86.154ZM398.469,88.923C399.387,88.923 400.142,89.53 400.142,90.271C400.142,91.013 399.393,91.625 398.475,91.625C397.557,91.625 396.802,91.018 396.802,90.277C396.802,89.536 397.551,88.929 398.469,88.923ZM398.48,94.388C397.562,94.388 396.807,93.782 396.807,93.04C396.807,92.299 397.557,91.687 398.475,91.687C399.393,91.687 400.148,92.293 400.148,93.035C400.148,93.776 399.399,94.388 398.48,94.388ZM401.826,77.847C402.745,77.847 403.499,78.453 403.499,79.195C403.499,79.936 402.75,80.543 401.832,80.548C400.914,80.548 400.159,79.942 400.159,79.2C400.159,78.459 400.908,77.852 401.826,77.847ZM401.871,80.616C402.79,80.616 403.544,81.222 403.544,81.964C403.544,82.705 402.795,83.312 401.877,83.318C400.959,83.318 400.204,82.711 400.204,81.97C400.204,81.228 400.953,80.621 401.871,80.616ZM401.877,83.385C402.795,83.385 403.55,83.992 403.55,84.733C403.55,85.474 402.801,86.087 401.883,86.087C400.965,86.087 400.21,85.48 400.21,84.739C400.21,83.997 400.959,83.385 401.877,83.385ZM401.883,86.154C402.801,86.154 403.556,86.761 403.556,87.502C403.556,88.244 402.807,88.85 401.888,88.856C400.97,88.856 400.215,88.249 400.215,87.508C400.215,86.766 400.965,86.16 401.883,86.154ZM401.894,91.619C400.976,91.619 400.221,91.013 400.221,90.271C400.221,89.53 400.97,88.923 401.888,88.918C402.807,88.918 403.561,89.524 403.561,90.266C403.561,91.007 402.812,91.614 401.894,91.619ZM405.285,77.841C406.203,77.841 406.958,78.448 406.958,79.189C406.958,79.931 406.209,80.543 405.291,80.543C404.373,80.543 403.618,79.936 403.618,79.195C403.618,78.453 404.367,77.841 405.285,77.841ZM405.291,80.61C406.209,80.61 406.964,81.217 406.964,81.958C406.964,82.7 406.215,83.306 405.296,83.312C404.378,83.312 403.623,82.705 403.623,81.964C403.623,81.222 404.373,80.616 405.291,80.61ZM405.296,83.379C406.215,83.379 406.969,83.986 406.969,84.727C406.969,85.469 406.22,86.076 405.302,86.081C404.384,86.081 403.629,85.474 403.629,84.733C403.629,83.992 404.378,83.385 405.296,83.379ZM405.313,88.845C404.395,88.845 403.64,88.238 403.64,87.497C403.64,86.755 404.389,86.149 405.308,86.143C406.226,86.143 406.981,86.75 406.981,87.491C406.981,88.232 406.231,88.845 405.313,88.845ZM408.716,80.605C409.634,80.605 410.389,81.211 410.389,81.953C410.389,82.694 409.639,83.301 408.721,83.306C407.803,83.306 407.048,82.7 407.048,81.958C407.048,81.217 407.797,80.61 408.716,80.605ZM408.727,86.07C407.809,86.07 407.054,85.463 407.054,84.722C407.054,83.98 407.803,83.374 408.721,83.368C409.639,83.368 410.394,83.975 410.394,84.716C410.394,85.458 409.645,86.064 408.727,86.07Z" style="fill:white;fill-rule:nonzero;"/>
            <path d="M404.384,72.101C404.384,73.19 401.894,72.117 398.824,72.117C395.754,72.117 393.264,73.19 393.264,72.101C393.264,71.011 395.754,68.169 398.824,68.169C401.894,68.169 404.384,71.011 404.384,72.101Z" style="fill:white;fill-rule:nonzero;"/>
            <path d="M395.697,70.505L394.965,67.989C394.948,67.939 394.999,67.888 395.067,67.888L396.526,67.888C396.593,67.888 396.638,67.939 396.627,67.989L395.895,70.505C395.872,70.59 395.72,70.59 395.697,70.505Z" style="fill-rule:nonzero;"/>
            <path d="M401.854,70.505L401.122,67.989C401.105,67.939 401.156,67.888 401.224,67.888L402.683,67.888C402.75,67.888 402.795,67.939 402.784,67.989L402.052,70.505C402.029,70.59 401.877,70.59 401.854,70.505Z" style="fill-rule:nonzero;"/>
            <path d="M398.728,70.017L397.996,67.5C397.979,67.45 398.03,67.399 398.097,67.399L399.556,67.399C399.624,67.399 399.669,67.45 399.657,67.5L398.925,70.017C398.903,70.101 398.751,70.101 398.728,70.017Z" style="fill-rule:nonzero;"/>
            <path d="M399.021,53.093C396.875,53.093 396.362,51.464 396.34,51.397L396.283,51.211L396.351,51.032C396.351,51.032 396.858,49.655 397.545,47.993L397.759,47.482L397.765,47.482L397.9,47.161C397.996,46.931 398.103,46.695 398.21,46.465L398.278,46.319L398.255,46.319L398.649,45.471C398.785,45.173 398.925,44.892 399.072,44.617L399.055,44.617L399.297,44.173L399.331,44.106L399.539,43.724C399.675,43.471 399.804,43.241 399.939,43.016L399.827,43.016L400.632,42.016C400.717,41.91 400.818,41.758 400.919,41.601C401.325,40.989 401.573,40.64 401.956,40.578L402.052,40.578C402.564,40.573 402.637,40.904 402.919,42.146L402.959,42.331L402.987,42.331L402.987,42.477L403.054,42.775L402.992,42.775L402.992,42.932C403.004,43.224 402.992,43.527 402.97,43.836L402.97,43.847L402.975,43.847L402.953,44.055L402.936,44.297L402.925,44.297L402.885,44.645C402.852,44.932 402.818,45.218 402.773,45.527L402.705,45.971L402.699,45.971L402.643,46.274C402.621,46.398 402.604,46.516 402.581,46.639C402.553,46.819 402.525,46.999 402.491,47.178L402.502,47.178L402.339,47.948C401.956,49.773 401.55,51.34 401.55,51.357C401.455,51.925 400.79,53.082 399.027,53.082L399.021,53.093Z" style="fill:rgb(1,1,1);fill-rule:nonzero;"/>
            <path d="M402.046,41.146C402.046,41.146 402.277,41.949 402.35,42.275C401.967,42.314 401.545,42.348 401.071,42.376C401.359,42.022 401.809,41.185 402.046,41.146ZM402.423,42.955C402.423,43.207 402.423,43.494 402.395,43.803C401.764,43.881 400.987,43.949 400.041,43.994C400.227,43.651 400.401,43.336 400.581,43.056C401.246,43.028 401.86,42.999 402.418,42.955M402.316,44.499C402.277,44.819 402.243,45.134 402.187,45.477C401.438,45.583 400.418,45.662 399.168,45.712C399.336,45.347 399.511,45.005 399.686,44.668C400.683,44.634 401.55,44.578 402.316,44.499ZM402.063,46.19C402.007,46.504 401.967,46.813 401.905,47.128C401.071,47.251 399.9,47.341 398.424,47.392C398.57,47.055 398.728,46.712 398.88,46.37C400.108,46.336 401.167,46.28 402.063,46.19ZM401.764,47.841C401.376,49.678 400.981,51.228 400.981,51.228C400.981,51.228 400.756,52.52 399.015,52.52C397.275,52.52 396.886,51.228 396.886,51.228C396.886,51.228 397.416,49.79 398.142,48.043C399.562,48.01 400.767,47.942 401.764,47.836M402.04,39.994L401.945,39.994L401.854,40.011C401.201,40.118 400.846,40.657 400.429,41.281C400.334,41.421 400.232,41.578 400.17,41.657L399.95,41.927L399.928,41.927L399.843,42.067L398.565,43.668L398.914,43.645L398.79,43.893L398.063,45.235L398.125,45.235L397.342,46.931L397.365,46.931L397.083,47.605C397.066,47.65 397.049,47.69 397.033,47.734L396.661,48.6L396.678,48.6C396.165,49.863 395.827,50.79 395.81,50.841L395.681,51.2L395.793,51.565C396.03,52.346 396.976,53.672 399.027,53.672C401.077,53.672 401.95,52.273 402.114,51.481C402.176,51.239 402.542,49.79 402.902,48.077L403.229,46.538L403.184,46.538L403.184,46.493L403.206,46.493L403.325,45.718L403.471,44.892L403.437,44.892L403.449,44.819L403.477,44.819L403.533,44.117L403.629,43.297L403.764,43.286L403.567,42.415L403.556,41.713L403.415,41.724C403.167,40.64 402.947,40 402.057,40L402.04,39.994Z" style="fill:white;fill-rule:nonzero;"/>
        </g>
    </g>
    <g transform="matrix(1,0,0,1,0.00537109,-2.66974)">
        <g opacity="0.41">
            <path d="M308.417,98.037C307.009,98.037 305.858,96.874 305.858,95.451L305.858,93.361C305.714,94.651 304.63,95.657 303.317,95.657L303.227,95.657C301.819,95.657 300.669,94.494 300.669,93.07L300.669,91.253C300.201,91.901 299.446,92.325 298.595,92.325L298.505,92.325C297.097,92.325 295.947,91.162 295.947,89.739L295.947,82.974C295.947,81.55 297.097,80.387 298.505,80.387L298.595,80.387C299.446,80.387 300.201,80.811 300.669,81.453L300.669,79.394C300.669,77.971 301.819,76.808 303.227,76.808L303.317,76.808C304.63,76.808 305.714,77.813 305.858,79.103L305.858,77.486C305.858,76.063 307.009,74.9 308.417,74.9L340.583,74.9C341.991,74.9 343.142,76.063 343.142,77.486L343.142,79.103C343.286,77.813 344.37,76.808 345.683,76.808L345.773,76.808C347.181,76.808 348.331,77.971 348.331,79.394L348.331,81.453C348.799,80.805 349.554,80.381 350.405,80.381L350.495,80.381C351.903,80.381 353.053,81.544 353.053,82.967L353.053,89.733C353.053,91.162 351.903,92.319 350.495,92.319L350.405,92.319C349.554,92.319 348.799,91.895 348.331,91.253L348.331,93.07C348.331,94.494 347.181,95.657 345.773,95.657L345.683,95.657C344.37,95.657 343.286,94.651 343.142,93.361L343.142,95.451C343.142,96.874 341.991,98.037 340.583,98.037L308.417,98.037Z" style="fill-rule:nonzero;"/>
            <path d="M340.583,75.857C341.464,75.857 342.189,76.59 342.189,77.48L342.189,95.451C342.189,96.347 341.464,97.074 340.583,97.074L308.417,97.074C307.53,97.074 306.811,96.341 306.811,95.451L306.811,77.48C306.811,76.584 307.536,75.857 308.417,75.857L340.583,75.857ZM345.772,77.765C346.659,77.765 347.378,78.498 347.378,79.388L347.378,93.064C347.378,93.961 346.653,94.688 345.772,94.688L345.683,94.688C344.796,94.688 344.077,93.955 344.077,93.064L344.077,79.388C344.077,78.492 344.802,77.765 345.683,77.765L345.772,77.765ZM303.317,77.765C304.204,77.765 304.923,78.498 304.923,79.388L304.923,93.064C304.923,93.961 304.198,94.688 303.317,94.688L303.227,94.688C302.34,94.688 301.621,93.955 301.621,93.064L301.621,79.388C301.621,78.492 302.346,77.765 303.227,77.765L303.317,77.765ZM350.488,81.338C351.369,81.338 352.094,82.071 352.094,82.962L352.094,89.727C352.094,90.623 351.369,91.35 350.488,91.35L350.399,91.35C349.512,91.35 348.793,90.617 348.793,89.727L348.793,82.962C348.793,82.065 349.518,81.338 350.399,81.338L350.488,81.338ZM298.601,81.338C299.488,81.338 300.207,82.071 300.207,82.962L300.207,89.727C300.207,90.623 299.482,91.35 298.601,91.35L298.511,91.35C297.625,91.35 296.905,90.617 296.905,89.727L296.905,82.962C296.905,82.065 297.631,81.338 298.511,81.338L298.601,81.338ZM340.583,73.931L308.417,73.931C306.877,73.931 305.57,74.936 305.097,76.329C304.576,76.02 303.964,75.839 303.317,75.839L303.227,75.839C301.292,75.839 299.716,77.432 299.716,79.388L299.716,79.6C299.362,79.479 298.991,79.418 298.595,79.418L298.505,79.418C296.57,79.418 294.994,81.011 294.994,82.968L294.994,89.733C294.994,91.689 296.57,93.282 298.505,93.282L298.595,93.282C298.985,93.282 299.362,93.216 299.716,93.095C299.728,95.039 301.298,96.62 303.227,96.62L303.317,96.62C303.922,96.62 304.486,96.462 304.983,96.196C305.319,97.801 306.733,99.006 308.417,99.006L340.583,99.006C342.267,99.006 343.681,97.801 344.017,96.196C344.514,96.468 345.083,96.62 345.683,96.62L345.772,96.62C347.702,96.62 349.272,95.045 349.284,93.095C349.638,93.216 350.009,93.282 350.405,93.282L350.494,93.282C352.43,93.282 354.006,91.689 354.006,89.733L354.006,82.968C354.006,81.011 352.43,79.418 350.494,79.418L350.405,79.418C350.015,79.418 349.638,79.485 349.284,79.606L349.284,79.394C349.284,77.438 347.708,75.845 345.772,75.845L345.683,75.845C345.035,75.845 344.424,76.026 343.903,76.335C343.43,74.942 342.117,73.937 340.583,73.937L340.583,73.931Z" style="fill:white;fill-rule:nonzero;"/>
            <path d="M314.529,80.993C315.416,80.993 316.147,81.587 316.147,82.313C316.147,83.04 315.422,83.64 314.535,83.64C313.648,83.64 312.917,83.046 312.917,82.32C312.917,81.593 313.642,80.993 314.529,80.993ZM314.541,86.353C313.654,86.353 312.923,85.76 312.923,85.033C312.923,84.306 313.648,83.707 314.535,83.707C315.422,83.707 316.153,84.3 316.153,85.027C316.153,85.754 315.428,86.353 314.541,86.353ZM317.795,78.274C318.682,78.274 319.413,78.867 319.413,79.594C319.413,80.321 318.688,80.92 317.801,80.92C316.914,80.92 316.183,80.327 316.183,79.6C316.183,78.873 316.908,78.274 317.795,78.274ZM317.843,80.987C318.73,80.987 319.461,81.581 319.461,82.307C319.461,83.034 318.735,83.634 317.849,83.634C316.962,83.634 316.231,83.04 316.231,82.313C316.231,81.587 316.956,80.987 317.843,80.987ZM317.849,83.701C318.735,83.701 319.467,84.294 319.467,85.021C319.467,85.748 318.741,86.347 317.855,86.347C316.968,86.347 316.237,85.754 316.237,85.027C316.237,84.3 316.962,83.701 317.849,83.701ZM317.861,89.061C316.974,89.061 316.243,88.467 316.243,87.74C316.243,87.014 316.968,86.414 317.855,86.414C318.741,86.414 319.473,87.007 319.473,87.734C319.473,88.461 318.747,89.061 317.861,89.061ZM321.144,78.267C322.031,78.267 322.762,78.861 322.762,79.588C322.762,80.315 322.037,80.914 321.15,80.914C320.264,80.914 319.532,80.321 319.532,79.594C319.532,78.867 320.258,78.267 321.144,78.267ZM321.15,80.981C322.037,80.981 322.768,81.575 322.768,82.301C322.768,83.028 322.043,83.628 321.156,83.628C320.27,83.628 319.538,83.034 319.538,82.307C319.538,81.581 320.264,80.981 321.15,80.981ZM321.156,83.694C322.043,83.694 322.774,84.288 322.774,85.015C322.774,85.742 322.049,86.341 321.162,86.341C320.276,86.341 319.544,85.748 319.544,85.021C319.544,84.294 320.27,83.694 321.156,83.694ZM321.162,86.408C322.049,86.408 322.78,87.001 322.78,87.728C322.78,88.455 322.055,89.055 321.168,89.055C320.282,89.055 319.55,88.461 319.55,87.734C319.55,87.007 320.276,86.408 321.162,86.408ZM321.174,91.768C320.287,91.768 319.556,91.175 319.556,90.448C319.556,89.721 320.282,89.121 321.168,89.121C322.055,89.121 322.786,89.715 322.786,90.442C322.786,91.169 322.061,91.768 321.174,91.768ZM324.458,80.975C325.345,80.975 326.076,81.568 326.076,82.295C326.076,83.022 325.351,83.622 324.464,83.622C323.577,83.622 322.846,83.028 322.846,82.301C322.846,81.575 323.571,80.981 324.458,80.975ZM324.464,83.688C325.351,83.688 326.082,84.282 326.082,85.009C326.082,85.736 325.357,86.335 324.47,86.335C323.583,86.335 322.852,85.742 322.852,85.015C322.852,84.288 323.577,83.688 324.464,83.688ZM324.47,86.402C325.357,86.402 326.088,86.995 326.088,87.722C326.088,88.449 325.363,89.049 324.476,89.049C323.589,89.049 322.858,88.455 322.858,87.728C322.858,87.001 323.583,86.402 324.47,86.402ZM324.476,89.115C325.363,89.115 326.094,89.709 326.094,90.436C326.094,91.162 325.369,91.762 324.482,91.762C323.595,91.762 322.864,91.169 322.864,90.442C322.864,89.715 323.589,89.115 324.476,89.115ZM324.488,94.476C323.601,94.476 322.87,93.882 322.87,93.155C322.87,92.428 323.595,91.829 324.482,91.829C325.369,91.829 326.1,92.422 326.1,93.149C326.1,93.876 325.375,94.476 324.488,94.476ZM327.724,78.255C328.611,78.255 329.342,78.849 329.342,79.576C329.342,80.303 328.617,80.902 327.73,80.902C326.843,80.902 326.112,80.309 326.112,79.582C326.112,78.855 326.837,78.255 327.724,78.255ZM327.772,80.969C328.659,80.969 329.39,81.562 329.39,82.289C329.39,83.016 328.665,83.616 327.778,83.616C326.891,83.616 326.16,83.022 326.16,82.295C326.16,81.568 326.885,80.969 327.772,80.969ZM327.778,83.682C328.665,83.682 329.396,84.276 329.396,85.003C329.396,85.73 328.671,86.329 327.784,86.329C326.897,86.329 326.166,85.736 326.166,85.009C326.166,84.282 326.891,83.682 327.778,83.682ZM327.784,86.396C328.671,86.396 329.402,86.989 329.402,87.716C329.402,88.443 328.677,89.043 327.79,89.043C326.903,89.043 326.172,88.449 326.172,87.722C326.172,86.995 326.897,86.396 327.784,86.396ZM327.796,91.756C326.909,91.756 326.178,91.162 326.178,90.436C326.178,89.709 326.903,89.109 327.79,89.109C328.677,89.109 329.408,89.703 329.408,90.43C329.408,91.156 328.683,91.756 327.796,91.756ZM331.074,78.249C331.96,78.249 332.692,78.843 332.692,79.57C332.692,80.297 331.966,80.896 331.08,80.896C330.193,80.896 329.462,80.303 329.462,79.576C329.462,78.849 330.187,78.249 331.074,78.249ZM331.08,80.963C331.966,80.963 332.698,81.556 332.698,82.283C332.698,83.01 331.972,83.61 331.086,83.61C330.199,83.61 329.468,83.016 329.468,82.289C329.468,81.562 330.193,80.963 331.08,80.963ZM331.086,83.676C331.972,83.676 332.704,84.27 332.704,84.997C332.704,85.723 331.978,86.323 331.092,86.323C330.205,86.323 329.474,85.73 329.474,85.003C329.474,84.276 330.199,83.676 331.086,83.676ZM331.098,89.037C330.211,89.037 329.48,88.443 329.48,87.716C329.48,86.989 330.205,86.39 331.092,86.39C331.978,86.39 332.709,86.983 332.709,87.71C332.709,88.437 331.984,89.037 331.098,89.037ZM334.387,80.957C335.274,80.957 336.005,81.55 336.005,82.277C336.005,83.004 335.28,83.604 334.393,83.604C333.506,83.604 332.775,83.01 332.775,82.283C332.775,81.556 333.5,80.957 334.387,80.957ZM334.399,86.317C333.512,86.317 332.781,85.723 332.781,84.997C332.781,84.27 333.506,83.67 334.393,83.67C335.28,83.67 336.011,84.264 336.011,84.991C336.011,85.717 335.286,86.317 334.399,86.317Z" style="fill:white;fill-rule:nonzero;"/>
            <path d="M309.238,74.821L308.692,74.24C305.241,70.575 303.341,65.857 303.341,60.945C303.341,49.927 312.821,40.963 324.47,40.963C336.119,40.963 345.599,49.927 345.599,60.951C345.599,65.863 343.699,70.581 340.248,74.246L339.702,74.827L309.238,74.827L309.238,74.821Z" style="fill:rgb(35,31,32);fill-rule:nonzero;"/>
            <path d="M324.47,41.926C335.598,41.926 344.652,50.46 344.652,60.951C344.652,65.615 342.842,70.097 339.565,73.579L339.301,73.858L309.645,73.858L309.381,73.579C306.098,70.097 304.294,65.609 304.294,60.951C304.294,50.46 313.342,41.926 324.47,41.926ZM324.47,40C312.294,40 302.388,49.4 302.388,60.951C302.388,66.111 304.384,71.066 308.003,74.906L308.267,75.184L308.83,75.784L340.116,75.784L340.679,75.19L340.943,74.912C344.562,71.066 346.558,66.111 346.558,60.951C346.558,49.4 336.646,40 324.47,40Z" style="fill:white;fill-rule:nonzero;"/>
            <path d="M341.596,66.396L341.566,65.784L341.38,65.79L341.38,65.784L336.682,65.978L336.545,65.33L341.464,64.633L341.38,64.022L341.195,64.052L341.189,64.022L336.413,64.7L336.287,64.088L341.165,62.889L341.021,62.289L340.841,62.332L340.829,62.289L336.149,63.44L333.722,51.974L329.198,55.554L319.748,55.554L315.218,51.974L312.785,63.489L307.901,62.289L307.889,62.332L307.71,62.289L307.566,62.889L312.647,64.137L312.521,64.73L307.542,64.022L307.536,64.052L307.35,64.022L307.266,64.633L312.39,65.36L312.258,65.984L307.356,65.784L307.356,65.79L307.164,65.784L307.14,66.396L312.126,66.602L310.688,73.428L338.258,73.428L336.814,66.596L341.596,66.396Z" style="fill:rgb(102,103,102);fill-rule:nonzero;"/>
            <path d="M324.722,63.428C325.171,63.428 325.351,63.658 325.129,63.937L324.776,64.379C324.554,64.658 324.188,64.658 323.967,64.379L323.613,63.937C323.391,63.658 323.571,63.428 324.021,63.428L324.728,63.428L324.722,63.428Z" style="fill:white;fill-rule:nonzero;"/>
            <path d="M329.264,59.873C330.043,59.97 330.72,60.37 331.169,60.969C330.72,61.569 330.043,61.975 329.264,62.065L329.264,59.873Z" style="fill:white;fill-rule:nonzero;"/>
            <path d="M328.653,59.867L328.653,62.071C327.862,61.987 327.167,61.581 326.717,60.969C327.173,60.357 327.868,59.952 328.653,59.867Z" style="fill:white;fill-rule:nonzero;"/>
            <path d="M320.096,59.867C320.881,59.958 321.564,60.357 322.019,60.963C321.57,61.569 320.881,61.974 320.096,62.059L320.096,59.861L320.096,59.867Z" style="fill:white;fill-rule:nonzero;"/>
            <path d="M319.485,59.867L319.485,62.066C318.7,61.975 318.016,61.575 317.561,60.969C318.01,60.364 318.7,59.958 319.485,59.873L319.485,59.867Z" style="fill:white;fill-rule:nonzero;"/>
            <path d="M337.533,72.241C323.853,72.241 312.755,65.3 312.755,56.965C312.755,56.759 312.767,56.56 312.779,56.354C312.767,56.136 312.761,55.911 312.761,55.687C312.761,52.126 314.421,49.297 317.064,47.075C310.898,49.661 306.667,54.621 306.667,60.793C306.667,65.36 308.135,69.473 311.838,72.356L338.234,72.356C338.372,72.247 337.911,72.235 337.533,72.235L337.533,72.241Z" style="fill:white;fill-rule:nonzero;"/>
        </g>
    </g>
    <g transform="matrix(1,0,0,1,0.00537109,-2.66974)">
        <g opacity="0.41">
            <path d="M3.423,92.276C2.034,92.276 0.901,91.299 0.901,90.094L0.901,84.785C0.901,83.585 2.034,82.603 3.423,82.603L3.513,82.603C4.906,82.603 6.035,83.58 6.035,84.785L6.035,90.094C6.035,91.293 4.901,92.276 3.513,92.276L3.423,92.276Z" style="fill-rule:nonzero;"/>
            <path d="M3.513,83.506C4.403,83.506 5.134,84.079 5.134,84.78L5.134,90.089C5.134,90.789 4.403,91.363 3.513,91.363L3.423,91.363C2.532,91.363 1.801,90.789 1.801,90.089L1.801,84.78C1.801,84.079 2.532,83.506 3.423,83.506L3.513,83.506ZM3.513,81.695L3.423,81.695C1.536,81.695 -0.005,83.081 -0.005,84.78L-0.005,90.089C-0.005,91.787 1.531,93.173 3.417,93.173L3.507,93.173C5.399,93.173 6.935,91.787 6.935,90.089L6.935,84.78C6.935,83.081 5.399,81.695 3.513,81.695Z" style="fill:white;fill-rule:nonzero;"/>
            <path d="M52.166,94.893C50.772,94.893 49.644,93.916 49.644,92.711L49.644,81.972C49.644,80.772 50.777,79.79 52.166,79.79L52.256,79.79C53.649,79.79 54.777,80.766 54.777,81.972L54.777,92.711C54.777,93.911 53.644,94.893 52.256,94.893L52.166,94.893Z" style="fill-rule:nonzero;"/>
            <path d="M52.25,80.697C53.14,80.697 53.871,81.271 53.871,81.971L53.871,92.711C53.871,93.412 53.14,93.985 52.25,93.985L52.16,93.985C51.27,93.985 50.539,93.412 50.539,92.711L50.539,81.971C50.539,81.271 51.27,80.697 52.16,80.697L52.25,80.697ZM52.25,78.887L52.16,78.887C50.274,78.887 48.732,80.273 48.732,81.971L48.732,92.711C48.732,94.41 50.269,95.796 52.16,95.796L52.25,95.796C54.136,95.796 55.678,94.41 55.678,92.711L55.678,81.971C55.678,80.273 54.142,78.887 52.25,78.887Z" style="fill:white;fill-rule:nonzero;"/>
            <path d="M57.522,92.276C56.134,92.276 55,91.299 55,90.094L55,84.785C55,83.585 56.134,82.603 57.522,82.603L57.612,82.603C59.005,82.603 60.134,83.58 60.134,84.785L60.134,90.094C60.134,91.293 59,92.276 57.612,92.276L57.522,92.276Z" style="fill-rule:nonzero;"/>
            <path d="M57.612,83.506C58.502,83.506 59.233,84.079 59.233,84.78L59.233,90.089C59.233,90.789 58.502,91.363 57.612,91.363L57.522,91.363C56.632,91.363 55.9,90.789 55.9,90.089L55.9,84.78C55.9,84.079 56.632,83.506 57.522,83.506L57.612,83.506ZM57.612,81.695L57.522,81.695C55.636,81.695 54.094,83.081 54.094,84.78L54.094,90.089C54.094,91.787 55.63,93.173 57.516,93.173L57.606,93.173C59.498,93.173 61.034,91.787 61.034,90.089L61.034,84.78C61.034,83.081 59.498,81.695 57.612,81.695Z" style="fill:white;fill-rule:nonzero;"/>
            <path d="M8.784,94.893C7.391,94.893 6.262,93.916 6.262,92.711L6.262,81.972C6.262,80.772 7.396,79.79 8.784,79.79L8.874,79.79C10.268,79.79 11.396,80.766 11.396,81.972L11.396,92.711C11.396,93.911 10.262,94.893 8.874,94.893L8.784,94.893Z" style="fill-rule:nonzero;"/>
            <path d="M8.874,80.697C9.764,80.697 10.496,81.271 10.496,81.971L10.496,92.711C10.496,93.412 9.764,93.985 8.874,93.985L8.784,93.985C7.894,93.985 7.163,93.412 7.163,92.711L7.163,81.971C7.163,81.271 7.894,80.697 8.784,80.697L8.874,80.697ZM8.88,78.887L8.784,78.887C6.898,78.887 5.356,80.273 5.356,81.971L5.356,92.711C5.356,94.41 6.893,95.796 8.784,95.796L8.874,95.796C10.761,95.796 12.302,94.41 12.302,92.711L12.302,81.971C12.302,80.273 10.766,78.887 8.88,78.887Z" style="fill:white;fill-rule:nonzero;"/>
            <path d="M18.035,76.073L42.994,76.073C46.449,76.073 49.257,78.887 49.257,82.348L49.257,92.823C49.257,96.284 46.449,99.098 42.994,99.098L18.04,99.098C14.586,99.098 11.778,96.284 11.778,92.823L11.778,82.354C11.778,78.892 14.586,76.079 18.04,76.079L18.035,76.073Z" style="fill-rule:nonzero;"/>
            <path d="M43,76.976C45.951,76.976 48.361,79.391 48.361,82.348L48.361,92.817C48.361,95.774 45.951,98.19 43,98.19L18.035,98.19C15.084,98.19 12.673,95.774 12.673,92.817L12.673,82.348C12.673,79.391 15.084,76.976 18.035,76.976L42.994,76.976M42.994,75.166L18.035,75.166C14.082,75.166 10.872,78.388 10.872,82.343L10.872,92.812C10.872,96.772 14.088,99.99 18.035,99.99L42.994,99.99C46.947,99.99 50.157,96.767 50.157,92.812L50.157,82.343C50.157,78.383 46.941,75.166 42.994,75.166Z" style="fill:white;fill-rule:nonzero;"/>
            <path d="M20.753,84.833C21.611,84.833 22.31,84.26 22.305,83.564C22.305,82.869 21.601,82.301 20.748,82.301C19.889,82.301 19.19,82.874 19.195,83.569C19.195,84.265 19.9,84.833 20.753,84.833Z" style="fill:white;fill-rule:nonzero;"/>
            <path d="M20.753,84.902C19.895,84.902 19.195,85.475 19.201,86.171C19.201,86.866 19.905,87.434 20.758,87.434C21.616,87.434 22.316,86.861 22.311,86.171C22.311,85.475 21.606,84.907 20.753,84.907L20.753,84.902Z" style="fill:white;fill-rule:nonzero;"/>
            <path d="M23.905,82.237C24.763,82.237 25.463,81.664 25.457,80.968C25.457,80.273 24.753,79.705 23.9,79.705C23.042,79.705 22.342,80.278 22.347,80.973C22.347,81.669 23.052,82.237 23.905,82.237Z" style="fill:white;fill-rule:nonzero;"/>
            <path d="M23.948,84.833C24.806,84.833 25.505,84.26 25.5,83.564C25.5,82.869 24.795,82.301 23.942,82.301C23.084,82.301 22.385,82.874 22.39,83.569C22.39,84.265 23.095,84.833 23.948,84.833Z" style="fill:white;fill-rule:nonzero;"/>
            <path d="M23.953,87.424C24.811,87.424 25.51,86.85 25.505,86.155C25.505,85.459 24.8,84.891 23.947,84.891C23.089,84.891 22.39,85.465 22.395,86.16C22.395,86.856 23.1,87.424 23.953,87.424Z" style="fill:white;fill-rule:nonzero;"/>
            <path d="M23.953,87.487C23.095,87.487 22.395,88.061 22.4,88.756C22.4,89.452 23.105,90.019 23.958,90.014C24.816,90.014 25.516,89.441 25.51,88.745C25.51,88.05 24.806,87.482 23.953,87.482L23.953,87.487Z" style="fill:white;fill-rule:nonzero;"/>
            <path d="M27.132,82.232C27.99,82.232 28.689,81.658 28.684,80.963C28.684,80.267 27.979,79.699 27.126,79.699C26.268,79.699 25.569,80.273 25.574,80.968C25.574,81.664 26.279,82.232 27.132,82.232Z" style="fill:white;fill-rule:nonzero;"/>
            <path d="M27.137,84.822C27.995,84.822 28.695,84.249 28.689,83.553C28.689,82.858 27.985,82.29 27.132,82.295C26.273,82.295 25.574,82.869 25.579,83.564C25.579,84.26 26.284,84.828 27.137,84.828L27.137,84.822Z" style="fill:white;fill-rule:nonzero;"/>
            <path d="M27.148,87.418C28.006,87.418 28.705,86.845 28.7,86.15C28.7,85.454 27.995,84.886 27.137,84.886C26.279,84.886 25.579,85.459 25.585,86.155C25.585,86.85 26.289,87.418 27.142,87.418L27.148,87.418Z" style="fill:white;fill-rule:nonzero;"/>
            <path d="M27.153,90.009C28.011,90.009 28.711,89.436 28.705,88.74C28.705,88.045 28.001,87.477 27.148,87.477C26.289,87.477 25.59,88.05 25.595,88.745C25.595,89.441 26.3,90.009 27.153,90.009Z" style="fill:white;fill-rule:nonzero;"/>
            <path d="M27.153,90.073C26.295,90.073 25.595,90.646 25.601,91.342C25.601,92.037 26.305,92.605 27.158,92.605C28.017,92.605 28.716,92.032 28.711,91.336C28.711,90.641 28.006,90.073 27.148,90.073L27.153,90.073Z" style="fill:white;fill-rule:nonzero;"/>
            <path d="M30.332,84.822C31.19,84.822 31.89,84.249 31.884,83.554C31.884,82.858 31.18,82.29 30.327,82.29C29.468,82.29 28.769,82.863 28.774,83.559C28.774,84.254 29.479,84.822 30.332,84.822Z" style="fill:white;fill-rule:nonzero;"/>
            <path d="M30.337,87.413C31.195,87.413 31.895,86.84 31.89,86.144C31.89,85.449 31.185,84.881 30.327,84.881C29.468,84.881 28.769,85.454 28.774,86.149C28.774,86.845 29.479,87.413 30.332,87.413L30.337,87.413Z" style="fill:white;fill-rule:nonzero;"/>
            <path d="M30.348,90.004C31.206,90.004 31.905,89.43 31.9,88.735C31.9,88.04 31.195,87.471 30.342,87.471C29.484,87.471 28.785,88.045 28.79,88.74C28.79,89.436 29.495,90.004 30.353,90.004L30.348,90.004Z" style="fill:white;fill-rule:nonzero;"/>
            <path d="M30.353,92.6C31.211,92.6 31.911,92.026 31.905,91.331C31.905,90.635 31.201,90.067 30.348,90.067C29.489,90.067 28.79,90.641 28.795,91.336C28.795,92.032 29.5,92.6 30.353,92.6Z" style="fill:white;fill-rule:nonzero;"/>
            <path d="M30.353,92.663C29.495,92.663 28.795,93.237 28.801,93.932C28.801,94.628 29.505,95.196 30.358,95.196C31.217,95.196 31.916,94.622 31.911,93.927C31.911,93.231 31.206,92.663 30.353,92.663Z" style="fill:white;fill-rule:nonzero;"/>
            <path d="M33.484,82.221C34.343,82.221 35.042,81.648 35.036,80.952C35.036,80.257 34.332,79.689 33.479,79.689C32.621,79.689 31.921,80.262 31.927,80.958C31.927,81.653 32.631,82.221 33.484,82.221Z" style="fill:white;fill-rule:nonzero;"/>
            <path d="M33.526,84.817C34.385,84.817 35.079,84.244 35.079,83.548C35.079,82.853 34.374,82.285 33.521,82.285C32.663,82.285 31.964,82.858 31.969,83.554C31.969,84.249 32.673,84.817 33.532,84.817L33.526,84.817Z" style="fill:white;fill-rule:nonzero;"/>
            <path d="M33.532,87.408C34.39,87.408 35.09,86.834 35.084,86.139C35.084,85.443 34.38,84.875 33.527,84.875C32.668,84.875 31.969,85.449 31.974,86.144C31.974,86.84 32.679,87.408 33.532,87.408Z" style="fill:white;fill-rule:nonzero;"/>
            <path d="M33.537,89.998C34.396,89.998 35.09,89.425 35.09,88.73C35.09,88.034 34.385,87.466 33.532,87.466C32.674,87.466 31.974,88.039 31.98,88.735C31.98,89.43 32.684,89.998 33.542,89.998L33.537,89.998Z" style="fill:white;fill-rule:nonzero;"/>
            <path d="M33.537,90.062C32.679,90.062 31.98,90.635 31.985,91.331C31.985,92.026 32.69,92.594 33.542,92.594C34.401,92.594 35.1,92.021 35.095,91.326C35.095,90.63 34.39,90.062 33.537,90.062Z" style="fill:white;fill-rule:nonzero;"/>
            <path d="M36.711,82.216C37.569,82.216 38.268,81.642 38.263,80.947C38.263,80.251 37.558,79.683 36.7,79.683C35.842,79.683 35.142,80.257 35.148,80.952C35.148,81.648 35.852,82.216 36.705,82.21L36.711,82.216Z" style="fill:white;fill-rule:nonzero;"/>
            <path d="M36.716,84.806C37.574,84.806 38.274,84.233 38.268,83.537C38.268,82.842 37.564,82.274 36.706,82.274C35.847,82.274 35.148,82.847 35.153,83.543C35.153,84.238 35.858,84.806 36.711,84.806L36.716,84.806Z" style="fill:white;fill-rule:nonzero;"/>
            <path d="M36.727,87.402C37.585,87.402 38.284,86.829 38.279,86.134C38.279,85.438 37.574,84.87 36.716,84.87C35.858,84.87 35.158,85.444 35.164,86.139C35.164,86.834 35.868,87.402 36.721,87.402L36.727,87.402Z" style="fill:white;fill-rule:nonzero;"/>
            <path d="M36.727,87.466C35.868,87.466 35.169,88.039 35.174,88.735C35.174,89.43 35.879,89.998 36.737,89.998C37.596,89.998 38.29,89.425 38.29,88.73C38.29,88.034 37.585,87.466 36.727,87.466Z" style="fill:white;fill-rule:nonzero;"/>
            <path d="M39.911,84.806C40.769,84.806 41.468,84.233 41.463,83.537C41.463,82.842 40.758,82.274 39.905,82.274C39.047,82.274 38.348,82.847 38.353,83.543C38.353,84.238 39.058,84.806 39.911,84.806Z" style="fill:white;fill-rule:nonzero;"/>
            <path d="M39.911,84.87C39.058,84.87 38.353,85.444 38.358,86.139C38.358,86.834 39.063,87.402 39.916,87.402C40.774,87.402 41.474,86.829 41.468,86.134C41.468,85.438 40.764,84.87 39.911,84.87Z" style="fill:white;fill-rule:nonzero;"/>
            <path d="M29.738,57.233C26.734,57.233 23.757,56.505 20.636,55.014L20.054,54.732L20.159,54.09C20.552,51.664 21.24,49.131 22.093,46.971C22.607,45.675 23.413,43.854 24.361,42.57C24.79,41.965 25.664,40.924 26.613,40.871L26.639,41.37L26.628,40.871C27.46,40.871 28.048,41.54 28.61,42.193C28.779,42.384 28.933,42.564 29.076,42.702C29.384,42.925 29.659,43.074 30.003,43.074C30.364,43.074 30.65,42.915 30.968,42.676C31.121,42.548 31.328,42.315 31.529,42.081C32.038,41.503 32.562,40.908 33.315,40.876L33.431,40.876C34.311,40.961 34.888,41.54 35.651,42.575C36.594,43.86 37.405,45.675 37.919,46.976C38.772,49.137 39.455,51.658 39.853,54.074L39.964,54.743L39.344,55.008C35.868,56.505 32.727,57.233 29.728,57.233L29.738,57.233Z" style="fill-rule:nonzero;"/>
            <path d="M26.671,41.736C27.248,41.736 27.937,42.819 28.525,43.361C28.896,43.637 29.368,43.934 30.009,43.934C30.65,43.934 31.127,43.642 31.492,43.361C32.149,42.824 32.753,41.763 33.357,41.736C33.866,41.784 34.247,42.113 34.962,43.085C35.699,44.088 36.457,45.596 37.124,47.289C37.988,49.476 38.639,51.966 39.01,54.212C35.704,55.635 32.69,56.367 29.738,56.367C26.787,56.367 24.006,55.666 21.007,54.233C21.373,51.982 22.024,49.487 22.893,47.294C23.561,45.601 24.313,44.093 25.055,43.09C25.473,42.501 26.152,41.768 26.66,41.741L26.671,41.741M33.405,40L33.288,40C32.165,40.053 31.46,40.86 30.893,41.503C30.735,41.683 30.554,41.89 30.427,42.002C30.199,42.166 30.099,42.203 30.014,42.203C29.935,42.203 29.839,42.171 29.643,42.033C29.537,41.927 29.405,41.773 29.272,41.619C28.636,40.897 27.858,40 26.671,40L26.607,40L26.597,40.589L26.565,40C25.325,40.069 24.297,41.157 23.651,42.065C22.65,43.424 21.812,45.309 21.283,46.652C20.408,48.871 19.704,51.462 19.301,53.952L19.095,55.231L20.265,55.789C23.503,57.339 26.602,58.093 29.738,58.093C32.875,58.093 36.112,57.344 39.694,55.799L40.933,55.263L40.716,53.925C40.314,51.446 39.609,48.861 38.735,46.647C38.2,45.298 37.357,43.408 36.356,42.049C35.614,41.041 34.841,40.128 33.516,40L33.399,39.99L33.405,40Z" style="fill:white;fill-rule:nonzero;"/>
            <path d="M30.332,67.558C18.602,67.558 8.715,60.975 8.302,55.507C8.254,55.204 8.228,54.896 8.217,54.589C8.175,51.817 9.399,48.154 15.486,46.413C15.751,46.339 16.022,46.296 16.292,46.296C17.897,46.296 19.1,47.634 20.493,49.179C22.623,51.541 25.272,54.488 30.512,54.488C35.752,54.488 38.279,51.568 40.313,49.227C41.638,47.698 42.782,46.376 44.372,46.376C44.637,46.376 44.907,46.413 45.172,46.493L45.702,46.641C51.832,48.398 52.483,52.062 52.441,54.668C52.441,55.003 52.404,55.348 52.34,55.687C51.736,61.076 41.808,67.563 30.327,67.563L30.332,67.558ZM22.793,59.913C24.34,60.163 26.877,60.391 30.332,60.391C33.786,60.391 36.324,60.163 37.876,59.913C37.299,59.818 36.562,59.727 35.641,59.648C34.067,59.51 32.234,59.435 30.337,59.435C28.7,59.435 27.073,59.489 25.643,59.595C24.419,59.685 23.492,59.796 22.798,59.913L22.793,59.913Z" style="fill-rule:nonzero;"/>
            <path d="M16.297,47.161C19.55,47.161 21.516,55.353 30.517,55.353C39.519,55.353 41.172,47.241 44.377,47.241C44.557,47.241 44.748,47.268 44.939,47.321L45.474,47.469C50.83,49.004 51.625,51.918 51.583,54.647C51.583,54.955 51.545,55.257 51.493,55.555C51,60.269 41.717,66.693 30.337,66.693C18.957,66.693 9.478,60.179 9.166,55.411C9.118,55.141 9.092,54.859 9.086,54.573C9.044,51.844 10.368,48.781 15.73,47.247C15.926,47.193 16.112,47.167 16.297,47.167M30.337,61.262C35.837,61.262 40.292,60.662 40.292,59.919C40.292,59.446 38.47,59.027 35.715,58.788C34.162,58.65 32.319,58.575 30.332,58.575C28.61,58.575 26.989,58.634 25.574,58.74C22.475,58.968 20.371,59.414 20.371,59.924C20.371,60.667 24.827,61.267 30.326,61.267M16.297,45.431C15.953,45.431 15.598,45.479 15.253,45.58C12.265,46.434 7.264,48.744 7.354,54.599C7.359,54.944 7.391,55.284 7.444,55.613C7.688,58.575 10.384,61.83 14.681,64.335C19.206,66.974 24.763,68.423 30.332,68.423C42.417,68.423 52.51,61.66 53.199,55.804C53.267,55.427 53.304,55.045 53.304,54.668C53.405,48.643 49.151,46.721 45.945,45.803L45.405,45.649C45.071,45.553 44.722,45.505 44.377,45.505C42.39,45.505 41.066,47.034 39.667,48.653C37.654,50.978 35.37,53.617 30.523,53.617C25.675,53.617 23.264,50.947 21.145,48.595C19.677,46.965 18.289,45.426 16.297,45.426L16.297,45.431Z" style="fill:white;fill-rule:nonzero;"/>
            <path d="M14.554,75.473C14.294,75.473 14.029,75.463 13.759,75.447L12.207,75.351L13.447,74.412C14.814,73.376 15.719,71.97 16.202,71.062C15.931,71.083 15.688,71.094 15.46,71.094C14.125,71.094 13.685,70.711 13.553,70.393L13.245,69.655L14.061,69.597L14.098,69.597C15.672,69.597 17.494,66.783 18.739,62.43C19.582,59.489 21.701,57.933 24.875,57.933C25.5,57.933 26.173,57.997 26.872,58.119L27.381,58.209L27.068,63.3L26.771,63.449C25.802,63.943 25.33,64.755 25.193,66.167C24.811,70.032 21.261,75.473 14.549,75.473L14.554,75.473Z" style="fill-rule:nonzero;"/>
            <path d="M24.88,58.517C25.558,58.517 26.205,58.592 26.782,58.692L26.517,62.939C25.378,63.518 24.785,64.49 24.626,66.114C24.287,69.538 21.076,74.9 14.559,74.9C14.31,74.9 14.056,74.895 13.796,74.874C16.138,73.1 17.171,70.366 17.171,70.366C16.445,70.478 15.884,70.52 15.46,70.52C14.231,70.52 14.088,70.175 14.088,70.175L14.109,70.175C16.048,70.175 17.987,67.186 19.306,62.594C20.249,59.308 22.697,58.517 24.885,58.517M24.885,57.36C21.479,57.36 19.105,59.106 18.199,62.271C16.869,66.905 15.147,69.018 14.114,69.018L13.081,69.018L12.949,70.048L12.917,70.345L13.028,70.621C13.298,71.269 14.024,71.625 15.179,71.672C14.692,72.416 14.003,73.276 13.102,73.955L10.617,75.835L13.727,76.026C14.008,76.042 14.289,76.052 14.559,76.052C21.627,76.052 25.373,70.303 25.775,66.226C25.913,64.813 26.385,64.304 27.042,63.964L27.63,63.667L27.672,63.008L27.937,58.761L28.001,57.726L26.983,57.551C26.252,57.424 25.542,57.36 24.885,57.36Z" style="fill:white;fill-rule:nonzero;"/>
            <path d="M45.733,75.473C39.026,75.473 35.471,70.032 35.09,66.167C34.952,64.755 34.48,63.943 33.511,63.449L33.214,63.3L32.901,58.209L33.41,58.119C34.109,57.997 34.782,57.933 35.407,57.933C38.576,57.933 40.7,59.489 41.543,62.43C42.793,66.783 44.61,69.591 46.184,69.591L46.761,69.591L46.783,70.17C46.783,70.451 46.576,70.706 46.221,70.871C45.892,71.019 45.426,71.094 44.833,71.094C44.605,71.094 44.356,71.083 44.091,71.062C44.579,71.97 45.479,73.376 46.846,74.412L48.086,75.351L46.533,75.447C46.263,75.463 45.998,75.473 45.733,75.473Z" style="fill-rule:nonzero;"/>
            <path d="M35.407,58.517C37.596,58.517 40.043,59.303 40.986,62.594C42.306,67.192 44.239,70.175 46.184,70.175L46.205,70.175C46.205,70.175 46.062,70.52 44.833,70.52C44.404,70.52 43.847,70.478 43.121,70.366C43.121,70.366 44.155,73.1 46.496,74.874C46.237,74.89 45.982,74.9 45.733,74.9C39.217,74.9 36.001,69.538 35.667,66.114C35.508,64.484 34.915,63.518 33.776,62.939L33.511,58.692C34.083,58.592 34.734,58.517 35.413,58.517M35.413,57.36C34.756,57.36 34.046,57.424 33.315,57.551L32.297,57.726L32.361,58.761L32.626,63.008L32.668,63.667L33.256,63.964C33.919,64.299 34.385,64.813 34.523,66.226C34.925,70.308 38.671,76.052 45.739,76.052C46.014,76.052 46.295,76.042 46.571,76.026L49.681,75.835L47.196,73.955C46.295,73.276 45.606,72.416 45.119,71.672C46.279,71.625 47.005,71.269 47.27,70.621L47.386,70.34L47.349,70.037L47.228,69.007L46.194,69.018C45.151,69.018 43.429,66.905 42.099,62.271C41.193,59.101 38.814,57.36 35.413,57.36Z" style="fill:white;fill-rule:nonzero;"/>
            <path d="M22.666,75.999C20.435,75.999 18.623,74.098 18.623,71.762L19.052,65.126C19.052,64.32 19.227,63.438 19.609,62.403C20.435,60.142 22.385,58.575 24.7,58.31C26.438,58.108 28.006,57.986 30.433,57.986C32.43,57.986 33.717,58.071 35.27,58.22C37.564,58.437 39.572,59.934 40.504,62.116C40.865,62.955 41.246,63.953 41.246,65.169L41.675,71.731C41.675,74.104 39.863,76.009 37.633,76.009L22.671,76.009L22.666,75.999Z" style="fill-rule:nonzero;"/>
            <path d="M30.427,58.57C32.403,58.57 33.659,58.655 35.206,58.804C37.278,59 39.1,60.343 39.953,62.345C40.34,63.253 40.647,64.112 40.647,65.164L41.077,71.763C41.077,73.775 39.529,75.41 37.627,75.41L22.666,75.41C20.758,75.41 19.216,73.78 19.216,71.763L19.645,65.164C19.645,64.282 19.868,63.422 20.165,62.605C20.917,60.556 22.697,59.133 24.769,58.894C26.544,58.692 28.091,58.576 30.433,58.576M30.433,57.392C27.98,57.392 26.395,57.519 24.636,57.721C22.099,58.013 19.963,59.728 19.058,62.201C18.66,63.29 18.469,64.224 18.464,65.132L18.035,71.694L18.035,71.773C18.035,74.438 20.112,76.604 22.666,76.604L37.627,76.604C40.181,76.604 42.263,74.438 42.263,71.773L42.263,71.694L41.834,65.132C41.824,63.821 41.426,62.769 41.045,61.888C40.028,59.505 37.834,57.875 35.323,57.636C33.755,57.487 32.456,57.397 30.433,57.397L30.433,57.392Z" style="fill:white;fill-rule:nonzero;"/>
            <path d="M35.423,67.861C33.002,67.861 31.19,65.302 31.19,63.014L31.19,62.737L29.473,62.737L29.473,63.014C29.473,65.302 27.661,67.861 25.24,67.861L23.884,67.829C21.664,67.505 20.996,66.565 20.996,63.81C20.996,60.609 23.746,60.359 24.589,60.359L26.644,60.359C26.644,60.359 26.782,60.359 26.999,60.38L33.696,60.38C33.887,60.359 34.024,60.359 34.024,60.359L36.08,60.359C36.923,60.359 39.672,60.609 39.672,63.81C39.672,66.57 39.005,67.505 36.817,67.829L35.429,67.866L35.423,67.861ZM31.206,61.947C31.243,61.697 31.344,61.421 31.587,61.166L29.087,61.166C29.325,61.421 29.431,61.697 29.468,61.947L31.211,61.947L31.206,61.947Z" style="fill-rule:nonzero;"/>
            <path d="M36.08,60.619C37.055,60.619 39.407,60.938 39.407,63.804C39.407,66.671 38.655,67.287 36.78,67.558L35.503,67.59L35.429,67.59C33.225,67.59 31.46,65.227 31.46,63.008L31.46,62.467L29.214,62.467L29.214,63.008C29.214,65.227 27.45,67.59 25.246,67.59L25.171,67.59L23.895,67.558C22.019,67.282 21.267,66.618 21.267,63.804C21.267,60.991 23.619,60.619 24.594,60.619L26.65,60.619C26.65,60.619 26.782,60.619 26.983,60.635L33.701,60.635C33.903,60.619 34.035,60.619 34.035,60.619L36.091,60.619M29.224,62.212L31.471,62.212L31.471,62.159C31.471,61.495 31.958,61.118 32.504,60.901L28.191,60.901C28.742,61.113 29.224,61.49 29.224,62.159L29.224,62.212ZM36.091,60.088L34.035,60.088C34.035,60.088 33.897,60.088 33.68,60.104L27.005,60.104C26.787,60.088 26.65,60.088 26.65,60.088L24.594,60.088C22.729,60.088 20.737,61.065 20.737,63.804C20.737,66.544 21.516,67.749 23.82,68.083L23.884,68.083L25.161,68.121L25.251,68.121C27.826,68.121 29.749,65.424 29.749,63.008L29.749,62.998L30.936,62.998L30.936,63.008C30.936,65.418 32.859,68.121 35.434,68.121L35.524,68.121L36.801,68.089L36.864,68.089C39.169,67.744 39.948,66.666 39.948,63.804C39.948,60.943 37.956,60.088 36.091,60.088ZM29.585,61.432L31.095,61.432C31.052,61.516 31.026,61.601 30.999,61.681L29.68,61.681C29.659,61.601 29.627,61.516 29.585,61.432Z" style="fill:white;fill-rule:nonzero;"/>
        </g>
    </g>
    <g transform="matrix(1,0,0,1,0.00537109,-2.66974)">
        <path d="M262.319,65.028L262.12,65.028C259.74,65.028 257.81,66.958 257.81,69.338L257.81,99.335C257.81,101.715 259.74,103.645 262.12,103.645L262.319,103.645C264.699,103.645 266.629,101.715 266.629,99.335L266.629,69.338C266.629,66.958 264.699,65.028 262.319,65.028Z" style="fill:none;fill-rule:nonzero;stroke:white;stroke-width:1.5px;stroke-miterlimit:4;"/>
    </g>
    <g transform="matrix(1,0,0,1,0.00537109,-2.66974)">
        <path d="M277.079,77.18C277.079,74.84 275.213,72.935 272.888,72.872L272.881,72.865L272.57,72.865C270.19,72.865 268.26,74.795 268.26,77.175L268.26,92.006C268.26,94.392 270.196,96.321 272.575,96.321L272.769,96.321C275.149,96.321 277.079,94.391 277.079,92.011L277.079,77.18Z" style="fill:none;fill-rule:nonzero;stroke:white;stroke-width:1.5px;stroke-miterlimit:4;"/>
    </g>
    <g transform="matrix(1,0,0,1,0.00537109,-2.66974)">
        <path d="M162.069,77.18C162.069,74.84 160.202,72.935 157.877,72.872L157.871,72.865L157.56,72.865C155.18,72.865 153.25,74.795 153.25,77.175L153.25,92.006C153.25,94.392 155.186,96.321 157.565,96.321L157.759,96.321C160.139,96.321 162.069,94.391 162.069,92.011L162.069,77.18Z" style="fill:none;fill-rule:nonzero;stroke:white;stroke-width:1.5px;stroke-miterlimit:4;"/>
    </g>
    <g transform="matrix(1,0,0,1,0.00537109,-2.66974)">
        <path d="M172.529,69.338C172.529,67.444 171.307,65.835 169.608,65.257L169.842,65.023L168.031,65.023C165.645,65.023 163.716,66.959 163.716,69.338L163.716,99.33C163.716,101.71 165.646,103.64 168.026,103.64L168.219,103.64C170.599,103.64 172.529,101.71 172.529,99.33L172.529,69.338Z" style="fill:none;fill-rule:nonzero;stroke:white;stroke-width:1.5px;stroke-miterlimit:4;"/>
    </g>
    <g transform="matrix(1,0,0,1,0.00537109,-2.66974)">
        <path d="M250.551,30.525L250.357,30.525C247.977,30.525 246.047,32.456 246.047,34.836L246.047,40.779C246.047,43.159 247.977,45.09 250.357,45.09L250.551,45.09C252.93,45.09 254.861,43.159 254.861,40.779L254.861,34.836C254.861,32.456 252.93,30.525 250.551,30.525Z" style="fill:none;fill-rule:nonzero;stroke:white;stroke-width:1.5px;stroke-miterlimit:4;"/>
    </g>
    <g transform="matrix(1,0,0,1,0.00537109,-2.66974)">
        <path d="M184.292,34.835C184.292,32.941 183.069,31.332 181.371,30.754L181.605,30.52L179.794,30.52C177.408,30.52 175.478,32.456 175.478,34.835L175.478,40.779C175.478,43.159 177.409,45.089 179.788,45.089L179.982,45.089C182.362,45.089 184.292,43.159 184.292,40.779L184.292,34.835Z" style="fill:none;fill-rule:nonzero;stroke:white;stroke-width:1.5px;stroke-miterlimit:4;"/>
    </g>
    <g transform="matrix(1,0,0,1,0.00537109,-2.66974)">
        <path d="M220.886,6.282L220.886,5.762L216.999,10.093C218.787,9.727 220.141,8.153 220.136,6.282L220.886,6.282ZM217.749,17.456L217.749,10.662L210.203,5.78L209.453,5.78L209.453,6.299C209.459,8.316 210.777,10.025 212.59,10.661L212.59,17.456L190.448,17.456C187.958,17.456 185.928,19.485 185.928,21.975L185.928,53.645C185.928,56.134 187.958,58.164 190.448,58.164L239.892,58.164C242.381,58.164 244.411,56.134 244.411,53.645L244.411,21.975C244.411,19.485 242.381,17.456 239.892,17.456L217.749,17.456ZM197.1,28.366L202.396,28.366L202.396,37.321L197.1,37.321L197.1,28.366ZM226.443,50.391L203.896,50.391L203.896,47.709L226.443,47.709L226.443,50.391ZM233.239,37.321L227.943,37.321L227.943,28.366L233.239,28.366L233.239,37.321Z" style="fill:none;fill-rule:nonzero;stroke:white;stroke-width:1.5px;stroke-miterlimit:4;"/>
    </g>
    <g transform="matrix(1,0,0,1,0.00537109,-2.66974)">
        <path d="M250.818,61.596L179.522,61.596C177.561,61.596 175.962,63.201 175.962,65.156L175.962,104.558C175.962,106.518 177.567,108.118 179.522,108.118L250.818,108.118C252.778,108.118 254.378,106.513 254.378,104.558L254.378,65.156C254.378,63.196 252.773,61.596 250.818,61.596ZM193.072,72.852C195.043,72.852 196.658,74.153 196.658,75.748C196.658,77.342 195.053,78.654 193.088,78.654C191.117,78.654 189.501,77.353 189.501,75.758C189.501,74.164 191.106,72.857 193.072,72.852ZM193.103,84.609C191.138,84.609 189.522,83.307 189.517,81.713C189.517,80.118 191.122,78.806 193.088,78.806C195.059,78.806 196.674,80.108 196.674,81.702C196.674,83.297 195.069,84.603 193.098,84.609L193.103,84.609ZM200.318,66.892C202.289,66.892 203.899,68.188 203.904,69.788C203.904,71.382 202.299,72.695 200.328,72.695C198.357,72.695 196.742,71.393 196.742,69.799C196.742,68.204 198.347,66.892 200.318,66.892ZM200.417,72.841C202.388,72.841 204.003,74.143 204.003,75.737C204.008,77.332 202.398,78.639 200.433,78.644C198.462,78.644 196.846,77.342 196.846,75.748C196.846,74.153 198.451,72.846 200.422,72.841L200.417,72.841ZM200.433,78.79C202.404,78.785 204.014,80.087 204.019,81.686C204.019,83.281 202.414,84.588 200.448,84.593C198.477,84.593 196.862,83.291 196.862,81.697C196.857,80.102 198.467,78.79 200.433,78.79ZM200.464,90.542C198.493,90.542 196.883,89.246 196.878,87.646C196.878,86.052 198.483,84.739 200.448,84.739C202.419,84.739 204.035,86.036 204.035,87.635C204.035,89.23 202.43,90.542 200.459,90.542L200.464,90.542ZM207.746,66.876C209.717,66.876 211.327,68.178 211.332,69.772C211.332,71.367 209.728,72.674 207.757,72.679C205.786,72.679 204.17,71.377 204.17,69.783C204.17,68.188 205.775,66.876 207.746,66.876ZM207.762,72.831C209.733,72.831 211.348,74.132 211.348,75.727C211.348,77.326 209.743,78.633 207.772,78.639C205.802,78.639 204.191,77.337 204.186,75.742C204.186,74.143 205.791,72.836 207.757,72.836L207.762,72.831ZM207.778,78.78C209.748,78.78 211.364,80.081 211.364,81.676C211.364,83.27 209.759,84.577 207.788,84.583C205.817,84.583 204.202,83.281 204.202,81.686C204.202,80.092 205.807,78.785 207.778,78.78ZM207.793,84.729C209.764,84.729 211.374,86.031 211.38,87.625C211.385,89.22 209.775,90.532 207.809,90.532C205.838,90.532 204.228,89.23 204.223,87.635C204.223,86.041 205.828,84.734 207.799,84.729L207.793,84.729ZM207.825,96.481C205.854,96.481 204.238,95.179 204.238,93.585C204.238,91.99 205.843,90.678 207.809,90.678C209.78,90.678 211.395,91.98 211.395,93.574C211.395,95.174 209.79,96.481 207.819,96.481L207.825,96.481ZM215.112,72.815C217.078,72.815 218.698,74.117 218.698,75.711C218.698,77.311 217.093,78.618 215.123,78.623C213.152,78.623 211.542,77.321 211.536,75.727C211.536,74.132 213.141,72.825 215.112,72.82L215.112,72.815ZM215.128,78.769C217.099,78.769 218.714,80.071 218.714,81.665C218.714,83.26 217.109,84.567 215.138,84.572C213.167,84.572 211.552,83.27 211.552,81.676C211.552,80.081 213.157,78.769 215.123,78.769L215.128,78.769ZM215.143,84.718C217.114,84.718 218.724,86.02 218.73,87.615C218.73,89.209 217.125,90.516 215.159,90.521C213.188,90.521 211.573,89.22 211.573,87.625C211.573,86.031 213.178,84.718 215.149,84.718L215.143,84.718ZM215.159,90.668C217.13,90.668 218.745,91.969 218.745,93.564C218.745,95.158 217.14,96.47 215.17,96.47C213.199,96.47 211.583,95.174 211.583,93.574C211.583,91.98 213.188,90.673 215.159,90.668ZM215.191,102.42C213.22,102.42 211.61,101.118 211.604,99.523C211.604,97.929 213.209,96.617 215.175,96.617C217.146,96.617 218.761,97.918 218.761,99.513C218.761,101.107 217.156,102.42 215.185,102.42L215.191,102.42ZM222.358,66.85C224.329,66.85 225.944,68.152 225.944,69.746C225.949,71.341 224.339,72.648 222.373,72.653C220.403,72.653 218.792,71.351 218.787,69.757C218.787,68.157 220.392,66.855 222.358,66.85ZM222.457,72.799C224.428,72.799 226.038,74.101 226.043,75.695C226.043,77.295 224.438,78.602 222.473,78.602C220.502,78.602 218.887,77.3 218.887,75.706C218.887,74.111 220.491,72.804 222.462,72.799L222.457,72.799ZM222.473,78.748C224.444,78.748 226.059,80.05 226.059,81.644C226.059,83.244 224.454,84.551 222.483,84.551C220.512,84.551 218.897,83.249 218.897,81.655C218.897,80.061 220.502,78.748 222.468,78.748L222.473,78.748ZM222.488,84.703C224.459,84.703 226.075,86.004 226.075,87.599C226.075,89.193 224.47,90.506 222.504,90.506C220.533,90.506 218.918,89.204 218.913,87.609C218.913,86.015 220.518,84.703 222.488,84.703ZM222.52,96.455C220.554,96.455 218.934,95.153 218.934,93.559C218.934,91.964 220.539,90.652 222.509,90.652C224.48,90.652 226.096,91.954 226.096,93.548C226.096,95.143 224.491,96.455 222.52,96.455ZM229.792,66.834C231.762,66.834 233.378,68.136 233.378,69.731C233.378,71.325 231.773,72.637 229.802,72.637C227.836,72.642 226.221,71.341 226.216,69.741C226.211,68.147 227.821,66.834 229.792,66.834ZM229.807,72.789C231.778,72.789 233.393,74.091 233.399,75.685C233.399,77.285 231.794,78.586 229.823,78.592C227.852,78.592 226.237,77.295 226.237,75.695C226.237,74.101 227.842,72.789 229.807,72.789ZM229.823,78.738C231.794,78.738 233.409,80.04 233.409,81.634C233.409,83.229 231.804,84.536 229.833,84.541C227.863,84.541 226.247,83.244 226.247,81.644C226.247,80.05 227.852,78.743 229.823,78.738ZM229.854,90.49C227.883,90.49 226.268,89.188 226.263,87.594C226.263,85.999 227.868,84.687 229.839,84.687C231.809,84.687 233.42,85.989 233.425,87.583C233.425,89.183 231.82,90.49 229.854,90.49ZM237.152,72.773C239.123,72.773 240.738,74.075 240.738,75.669C240.744,77.264 239.134,78.576 237.168,78.576C235.197,78.576 233.587,77.279 233.582,75.68C233.582,74.085 235.187,72.773 237.157,72.773L237.152,72.773ZM237.184,84.525C235.213,84.525 233.597,83.223 233.597,81.629C233.597,80.034 235.202,78.722 237.168,78.722C239.139,78.722 240.754,80.024 240.754,81.618C240.754,83.213 239.149,84.525 237.184,84.525Z" style="fill:none;fill-rule:nonzero;stroke:white;stroke-width:3px;stroke-miterlimit:4;"/>
    </g>
</svg>
