<?xml version="1.0" encoding="UTF-8" standalone="no"?>
<!DOCTYPE svg PUBLIC "-//W3C//DTD SVG 1.1//EN" "http://www.w3.org/Graphics/SVG/1.1/DTD/svg11.dtd">
<svg width="100%" height="100%" viewBox="0 0 361 124" version="1.1" xmlns="http://www.w3.org/2000/svg" xmlns:xlink="http://www.w3.org/1999/xlink" xml:space="preserve" xmlns:serif="http://www.serif.com/" style="fill-rule:evenodd;clip-rule:evenodd;">
    <g transform="matrix(1,0,0,1,2,3.12311)">
        <path d="M22.63,37.343C20.034,37.343 17.815,36.428 15.973,34.596C15.303,33.923 14.759,33.196 14.34,32.417C14.026,31.976 13.743,31.376 13.492,30.618L2,1.663L13.241,1.663L22.316,24.492L22.347,24.461C22.473,24.713 22.609,24.903 22.755,25.029C22.923,25.176 23.101,25.25 23.289,25.25C23.666,25.25 23.98,25.113 24.231,24.839C24.294,24.776 24.357,24.703 24.419,24.618L30.951,1.663L43.102,1.663L49.602,24.618C49.665,24.703 49.728,24.776 49.791,24.839C50.063,25.113 50.387,25.25 50.764,25.25C50.931,25.25 51.099,25.176 51.266,25.029C51.434,24.903 51.58,24.713 51.706,24.461L51.706,24.492L60.812,1.663L72.053,1.663L60.529,30.618C60.278,31.376 59.995,31.976 59.681,32.417C59.263,33.196 58.719,33.923 58.049,34.596C56.207,36.428 53.998,37.343 51.423,37.343C48.451,37.343 45.928,36.301 43.856,34.217C42.558,32.912 41.658,31.449 41.156,29.828C41.093,29.639 41.019,29.439 40.936,29.228C40.768,28.723 40.622,28.186 40.496,27.618L37.011,15.304L33.525,27.618C33.4,28.186 33.253,28.723 33.086,29.228C33.023,29.439 32.95,29.628 32.866,29.797C32.385,31.439 31.495,32.912 30.197,34.217C28.104,36.301 25.581,37.343 22.63,37.343Z" style="fill:white;fill-rule:nonzero;"/>
    </g>
    <g transform="matrix(1,0,0,1,2,3.12311)">
        <path d="M83.014,36.68C80.041,36.68 77.519,35.628 75.447,33.523C73.353,31.418 72.307,28.881 72.307,25.913L72.307,12.43C72.307,9.462 73.353,6.926 75.447,4.821C77.54,2.716 80.062,1.663 83.014,1.663L111.148,1.663L111.148,9.746L85.683,9.746C84.95,9.746 84.322,10.009 83.799,10.536C83.276,11.062 83.014,11.694 83.014,12.43L83.014,15.146L110.489,15.146L110.489,23.229L83.014,23.229L83.014,25.913C83.014,26.65 83.276,27.292 83.799,27.839C84.322,28.344 84.95,28.597 85.683,28.597L111.808,28.597L111.808,36.68L83.014,36.68Z" style="fill:white;fill-rule:nonzero;"/>
    </g>
    <g transform="matrix(1,0,0,1,2,3.12311)">
        <path d="M126.534,36.68C123.561,36.68 121.039,35.628 118.967,33.523C116.873,31.418 115.827,28.881 115.827,25.913L115.827,1.663L126.534,1.663L126.534,23.229C126.534,24.703 127.057,25.976 128.104,27.05C129.151,28.081 130.417,28.597 131.903,28.597L154.668,28.597L154.668,36.68L126.534,36.68Z" style="fill:white;fill-rule:nonzero;"/>
    </g>
    <g transform="matrix(1,0,0,1,2,3.12311)">
        <path d="M168.044,36.68C165.072,36.68 162.55,35.628 160.477,33.523C158.384,31.418 157.337,28.881 157.337,25.913L157.337,12.43C157.337,9.462 158.384,6.926 160.477,4.821C162.57,2.716 165.093,1.663 168.044,1.663L196.179,1.663L196.179,9.746L173.414,9.746C171.928,9.746 170.661,10.273 169.614,11.325C168.568,12.378 168.044,13.651 168.044,15.146L168.044,23.229C168.044,24.703 168.568,25.976 169.614,27.05C170.661,28.081 171.928,28.597 173.414,28.597L196.179,28.597L196.179,36.68L168.044,36.68Z" style="fill:white;fill-rule:nonzero;"/>
    </g>
    <g transform="matrix(1,0,0,1,2,3.12311)">
        <path d="M231.032,28.597C232.498,28.597 233.764,28.081 234.832,27.05C235.878,25.976 236.402,24.703 236.402,23.229L236.402,15.146C236.402,13.651 235.878,12.378 234.832,11.325C233.764,10.273 232.498,9.746 231.032,9.746L216.306,9.746C214.82,9.746 213.553,10.273 212.507,11.325C211.46,12.378 210.937,13.651 210.937,15.146L210.937,23.229C210.937,24.703 211.46,25.976 212.507,27.05C213.553,28.081 214.82,28.597 216.306,28.597L231.032,28.597ZM210.937,36.68C207.964,36.68 205.442,35.628 203.369,33.523C201.276,31.418 200.229,28.881 200.229,25.913L200.229,12.43C200.229,9.462 201.276,6.926 203.369,4.821C205.463,2.716 207.985,1.663 210.937,1.663L236.402,1.663C239.353,1.663 241.876,2.716 243.969,4.821C246.062,6.926 247.109,9.462 247.109,12.43L247.109,25.913C247.109,28.902 246.062,31.439 243.969,33.523C241.876,35.628 239.353,36.68 236.402,36.68L210.937,36.68Z" style="fill:white;fill-rule:nonzero;"/>
    </g>
    <g transform="matrix(1,0,0,1,2,3.12311)">
        <path d="M252.478,36.68L252.478,10.41C252.478,7.82 253.389,5.599 255.21,3.747C257.052,1.916 259.261,1 261.836,1L262.526,1C265.478,1 268,2.053 270.094,4.158C271.245,5.315 272.082,6.61 272.606,8.041L281.931,26.829L291.257,8.041C291.781,6.61 292.628,5.315 293.801,4.158C295.894,2.053 298.416,1 301.368,1L302.027,1C304.623,1 306.831,1.916 308.653,3.747C310.495,5.599 311.416,7.82 311.416,10.41L311.416,36.68L300.709,36.68L300.709,14.451C300.709,14.093 300.572,13.778 300.3,13.504C300.028,13.251 299.714,13.125 299.358,13.125C299.17,13.125 298.992,13.157 298.825,13.22C298.678,13.283 298.542,13.378 298.416,13.504L298.385,13.504L286.861,36.68L277.033,36.68L271.664,25.913L265.478,13.504C265.352,13.378 265.206,13.283 265.038,13.22C264.871,13.157 264.703,13.125 264.536,13.125C264.159,13.125 263.835,13.251 263.563,13.504C263.311,13.778 263.186,14.093 263.186,14.451L263.186,36.68L252.478,36.68Z" style="fill:white;fill-rule:nonzero;"/>
    </g>
    <g transform="matrix(1,0,0,1,2,3.12311)">
        <path d="M326.206,36.68C323.234,36.68 320.711,35.628 318.639,33.523C316.546,31.418 315.499,28.881 315.499,25.913L315.499,12.43C315.499,9.462 316.546,6.926 318.639,4.821C320.732,2.716 323.255,1.663 326.206,1.663L354.341,1.663L354.341,9.746L328.875,9.746C328.143,9.746 327.515,10.009 326.991,10.536C326.468,11.062 326.206,11.694 326.206,12.43L326.206,15.146L353.681,15.146L353.681,23.229L326.206,23.229L326.206,25.913C326.206,26.65 326.468,27.292 326.991,27.839C327.515,28.344 328.143,28.597 328.875,28.597L355,28.597L355,36.68L326.206,36.68Z" style="fill:white;fill-rule:nonzero;"/>
    </g>
    <g transform="matrix(1,0,0,1,2,3.12311)">
        <path d="M22.63,37.343C20.034,37.343 17.815,36.428 15.973,34.596C15.303,33.923 14.759,33.196 14.34,32.417C14.026,31.976 13.743,31.376 13.492,30.618L2,1.663L13.241,1.663L22.316,24.492L22.347,24.461C22.473,24.713 22.609,24.903 22.755,25.029C22.923,25.176 23.101,25.25 23.289,25.25C23.666,25.25 23.98,25.113 24.231,24.839C24.294,24.776 24.357,24.703 24.419,24.618L30.951,1.663L43.102,1.663L49.602,24.618C49.665,24.703 49.728,24.776 49.791,24.839C50.063,25.113 50.387,25.25 50.764,25.25C50.931,25.25 51.099,25.176 51.266,25.029C51.434,24.903 51.58,24.713 51.706,24.461L51.706,24.492L60.812,1.663L72.053,1.663L60.529,30.618C60.278,31.376 59.995,31.976 59.681,32.417C59.263,33.196 58.719,33.923 58.049,34.596C56.207,36.428 53.998,37.343 51.423,37.343C48.451,37.343 45.928,36.301 43.856,34.217C42.558,32.912 41.658,31.449 41.156,29.828C41.093,29.639 41.019,29.439 40.936,29.228C40.768,28.723 40.622,28.186 40.496,27.618L37.011,15.304L33.525,27.618C33.4,28.186 33.253,28.723 33.086,29.228C33.023,29.439 32.95,29.628 32.866,29.797C32.385,31.439 31.495,32.912 30.197,34.217C28.104,36.301 25.581,37.343 22.63,37.343Z" style="fill:none;fill-rule:nonzero;stroke:black;stroke-width:2px;"/>
    </g>
    <g transform="matrix(1,0,0,1,2,3.12311)">
        <path d="M83.014,36.68C80.041,36.68 77.519,35.628 75.447,33.523C73.353,31.418 72.307,28.881 72.307,25.913L72.307,12.43C72.307,9.462 73.353,6.926 75.447,4.821C77.54,2.716 80.062,1.663 83.014,1.663L111.148,1.663L111.148,9.746L85.683,9.746C84.95,9.746 84.322,10.009 83.799,10.536C83.276,11.062 83.014,11.694 83.014,12.43L83.014,15.146L110.489,15.146L110.489,23.229L83.014,23.229L83.014,25.913C83.014,26.65 83.276,27.292 83.799,27.839C84.322,28.344 84.95,28.597 85.683,28.597L111.808,28.597L111.808,36.68L83.014,36.68Z" style="fill:none;fill-rule:nonzero;stroke:black;stroke-width:2px;"/>
    </g>
    <g transform="matrix(1,0,0,1,2,3.12311)">
        <path d="M126.534,36.68C123.561,36.68 121.039,35.628 118.967,33.523C116.873,31.418 115.827,28.881 115.827,25.913L115.827,1.663L126.534,1.663L126.534,23.229C126.534,24.703 127.057,25.976 128.104,27.05C129.151,28.081 130.417,28.597 131.903,28.597L154.668,28.597L154.668,36.68L126.534,36.68Z" style="fill:none;fill-rule:nonzero;stroke:black;stroke-width:2px;"/>
    </g>
    <g transform="matrix(1,0,0,1,2,3.12311)">
        <path d="M168.044,36.68C165.072,36.68 162.55,35.628 160.477,33.523C158.384,31.418 157.337,28.881 157.337,25.913L157.337,12.43C157.337,9.462 158.384,6.926 160.477,4.821C162.57,2.716 165.093,1.663 168.044,1.663L196.179,1.663L196.179,9.746L173.414,9.746C171.928,9.746 170.661,10.273 169.614,11.325C168.568,12.378 168.044,13.651 168.044,15.146L168.044,23.229C168.044,24.703 168.568,25.976 169.614,27.05C170.661,28.081 171.928,28.597 173.414,28.597L196.179,28.597L196.179,36.68L168.044,36.68Z" style="fill:none;fill-rule:nonzero;stroke:black;stroke-width:2px;"/>
    </g>
    <g transform="matrix(1,0,0,1,2,3.12311)">
        <path d="M231.032,28.597C232.498,28.597 233.764,28.081 234.832,27.05C235.878,25.976 236.402,24.703 236.402,23.229L236.402,15.146C236.402,13.651 235.878,12.378 234.832,11.325C233.764,10.273 232.498,9.746 231.032,9.746L216.306,9.746C214.82,9.746 213.553,10.273 212.507,11.325C211.46,12.378 210.937,13.651 210.937,15.146L210.937,23.229C210.937,24.703 211.46,25.976 212.507,27.05C213.553,28.081 214.82,28.597 216.306,28.597L231.032,28.597ZM210.937,36.68C207.964,36.68 205.442,35.628 203.369,33.523C201.276,31.418 200.229,28.881 200.229,25.913L200.229,12.43C200.229,9.462 201.276,6.926 203.369,4.821C205.463,2.716 207.985,1.663 210.937,1.663L236.402,1.663C239.353,1.663 241.876,2.716 243.969,4.821C246.062,6.926 247.109,9.462 247.109,12.43L247.109,25.913C247.109,28.902 246.062,31.439 243.969,33.523C241.876,35.628 239.353,36.68 236.402,36.68L210.937,36.68Z" style="fill:none;fill-rule:nonzero;stroke:black;stroke-width:2px;"/>
    </g>
    <g transform="matrix(1,0,0,1,2,3.12311)">
        <path d="M252.478,36.68L252.478,10.41C252.478,7.82 253.389,5.599 255.21,3.747C257.052,1.916 259.261,1 261.836,1L262.526,1C265.478,1 268,2.053 270.094,4.158C271.245,5.315 272.082,6.61 272.606,8.041L281.931,26.829L291.257,8.041C291.781,6.61 292.628,5.315 293.801,4.158C295.894,2.053 298.416,1 301.368,1L302.027,1C304.623,1 306.831,1.916 308.653,3.747C310.495,5.599 311.416,7.82 311.416,10.41L311.416,36.68L300.709,36.68L300.709,14.451C300.709,14.093 300.572,13.778 300.3,13.504C300.028,13.251 299.714,13.125 299.358,13.125C299.17,13.125 298.992,13.157 298.825,13.22C298.678,13.283 298.542,13.378 298.416,13.504L298.385,13.504L286.861,36.68L277.033,36.68L271.664,25.913L265.478,13.504C265.352,13.378 265.206,13.283 265.038,13.22C264.871,13.157 264.703,13.125 264.536,13.125C264.159,13.125 263.835,13.251 263.563,13.504C263.311,13.778 263.186,14.093 263.186,14.451L263.186,36.68L252.478,36.68Z" style="fill:none;fill-rule:nonzero;stroke:black;stroke-width:2px;"/>
    </g>
    <g transform="matrix(1,0,0,1,2,3.12311)">
        <path d="M326.206,36.68C323.234,36.68 320.711,35.628 318.639,33.523C316.546,31.418 315.499,28.881 315.499,25.913L315.499,12.43C315.499,9.462 316.546,6.926 318.639,4.821C320.732,2.716 323.255,1.663 326.206,1.663L354.341,1.663L354.341,9.746L328.875,9.746C328.143,9.746 327.515,10.009 326.991,10.536C326.468,11.062 326.206,11.694 326.206,12.43L326.206,15.146L353.681,15.146L353.681,23.229L326.206,23.229L326.206,25.913C326.206,26.65 326.468,27.292 326.991,27.839C327.515,28.344 328.143,28.597 328.875,28.597L355,28.597L355,36.68L326.206,36.68Z" style="fill:none;fill-rule:nonzero;stroke:black;stroke-width:2px;"/>
    </g>
    <g transform="matrix(1,0,0,1,39,65)">
        <path d="M16.582,54C11.978,54 8.072,52.377 4.863,49.131C1.621,45.885 0,41.973 0,37.396L0,0L16.582,0L16.582,33.257C16.582,35.529 17.392,37.493 19.013,39.149C20.634,40.739 22.595,41.535 24.897,41.535L43.57,41.535C45.839,41.535 47.784,40.739 49.405,39.149C51.026,37.493 51.836,35.529 51.836,33.257L51.836,0L68.467,0L68.467,37.396C68.467,42.005 66.83,45.917 63.556,49.131C60.314,52.377 56.407,54 51.836,54L16.582,54Z" style="fill:white;fill-rule:nonzero;"/>
    </g>
    <g transform="matrix(1,0,0,1,39,65)">
        <path d="M74.691,54L74.691,41.535L123.415,41.535C124.55,41.535 125.522,41.145 126.333,40.366C127.143,39.522 127.549,38.532 127.549,37.396C127.549,36.26 127.143,35.286 126.333,34.474C125.522,33.663 124.55,33.257 123.415,33.257L85,33.257C82.731,33.257 80.769,32.445 79.116,30.822C77.528,29.199 76.733,27.235 76.733,24.931L76.733,8.326C76.733,6.054 77.528,4.09 79.116,2.435C80.769,0.812 82.731,0 85,0L141.018,0L141.018,12.465L97.449,12.465C96.314,12.465 95.341,12.871 94.531,13.683C93.72,14.494 93.315,15.468 93.315,16.604C93.315,17.773 93.72,18.763 94.531,19.574C95.341,20.386 96.314,20.792 97.449,20.792L135.864,20.792C138.133,20.792 140.078,21.603 141.699,23.226C143.32,24.849 144.13,26.797 144.13,29.069L144.13,45.722C144.13,47.995 143.32,49.959 141.699,51.614C140.078,53.205 138.133,54 135.864,54L74.691,54Z" style="fill:white;fill-rule:nonzero;"/>
    </g>
    <g transform="matrix(1,0,0,1,39,65)">
        <path d="M168.006,54C163.403,54 159.497,52.377 156.287,49.131C153.045,45.885 151.424,41.973 151.424,37.396L151.424,16.604C151.424,12.027 153.045,8.115 156.287,4.869C159.529,1.623 163.435,0 168.006,0L211.576,0L211.576,12.465L172.14,12.465C171.005,12.465 170.032,12.871 169.222,13.683C168.412,14.494 168.006,15.468 168.006,16.604L168.006,20.792L210.555,20.792L210.555,33.257L168.006,33.257L168.006,37.396C168.006,38.532 168.412,39.522 169.222,40.366C170.032,41.145 171.005,41.535 172.14,41.535L212.597,41.535L212.597,54L168.006,54Z" style="fill:white;fill-rule:nonzero;"/>
    </g>
    <g transform="matrix(1,0,0,1,39,65)">
        <path d="M221.773,13.022L269.301,13.022L269.301,21.335L221.773,21.335L221.773,54L235.397,54L235.397,34.219L252.725,34.219L266.425,54L283,54L269.301,34.219C276.794,34.219 282.924,28.08 282.924,20.577L282.924,13.78C282.924,6.277 276.794,0.138 269.301,0.138L221.773,0.138L221.773,13.022Z" style="fill:white;fill-rule:nonzero;"/>
    </g>
</svg>
