<?xml version="1.0" encoding="UTF-8" standalone="no"?>
<!DOCTYPE svg PUBLIC "-//W3C//DTD SVG 1.1//EN" "http://www.w3.org/Graphics/SVG/1.1/DTD/svg11.dtd">
<svg width="100%" height="100%" viewBox="0 0 185 150" version="1.1" xmlns="http://www.w3.org/2000/svg" xmlns:xlink="http://www.w3.org/1999/xlink" xml:space="preserve" xmlns:serif="http://www.serif.com/" style="fill-rule:evenodd;clip-rule:evenodd;">
    <g transform="matrix(4.73289e-08,1,1,-4.03704e-08,182.544,29.7979)">
        <path d="M0,-0.5L38.36,-0.5" style="fill:none;fill-rule:nonzero;stroke:white;stroke-width:1px;"/>
    </g>
    <g transform="matrix(-0.734624,-0.678474,-0.734624,0.678474,181.915,25.9068)">
        <path d="M0,-0.5L34.527,-0.5" style="fill:none;fill-rule:nonzero;stroke:white;stroke-width:1px;"/>
    </g>
    <g transform="matrix(-1,0,0,1,153.489,3.28858)">
        <path d="M0,-0.5L29.738,-0.5" style="fill:none;fill-rule:nonzero;stroke:white;stroke-width:1px;"/>
    </g>
    <g transform="matrix(-0.734624,0.678474,0.734624,0.678474,117.629,5.30811)">
        <path d="M0,-0.5L30.955,-0.5" style="fill:none;fill-rule:nonzero;stroke:white;stroke-width:1px;"/>
    </g>
    <g transform="matrix(-0.734624,-0.678474,-0.734624,0.678474,89.4062,25.9068)">
        <path d="M0,-0.5L34.527,-0.5" style="fill:none;fill-rule:nonzero;stroke:white;stroke-width:1px;"/>
    </g>
    <g transform="matrix(-1,0,0,1,60.9807,3.28858)">
        <path d="M0,-0.5L29.738,-0.5" style="fill:none;fill-rule:nonzero;stroke:white;stroke-width:1px;"/>
    </g>
    <g transform="matrix(-0.734624,0.678474,0.734624,0.678474,25.1206,5.30811)">
        <path d="M0,-0.5L30.955,-0.5" style="fill:none;fill-rule:nonzero;stroke:white;stroke-width:1px;"/>
    </g>
    <g transform="matrix(4.73289e-08,1,1,-4.03704e-08,2.56155,29.7979)">
        <path d="M0,-0.5L38.36,-0.5" style="fill:none;fill-rule:nonzero;stroke:white;stroke-width:1px;"/>
    </g>
    <g transform="matrix(0.734966,0.678104,-0.734282,0.678845,3.1907,75.1324)">
        <path d="M0,-0.5L106.693,-0.5" style="fill:none;fill-rule:nonzero;stroke:white;stroke-width:1px;"/>
    </g>
    <g transform="matrix(-0.718064,0.695977,-0.750697,-0.660647,176.251,75.1324)">
        <path d="M0,-0.5L103.953,-0.5" style="fill:none;fill-rule:nonzero;stroke:white;stroke-width:1px;"/>
    </g>
    <g transform="matrix(0.519458,-0.830958,0.899727,0.479754,8.74685,39.417)">
        <path d="M0,-0.25L27.037,-0.25" style="fill:none;fill-rule:nonzero;stroke:white;stroke-width:0.5px;"/>
    </g>
    <g transform="matrix(0.502033,0.87543,-0.890952,0.435815,23.3098,16.8228)">
        <path d="M0,-0.25L24.645,-0.25" style="fill:none;fill-rule:nonzero;stroke:white;stroke-width:0.5px;"/>
    </g>
    <g transform="matrix(-1.00838,0.0205445,-0.0236449,-0.989925,35.6824,38.3975)">
        <path d="M0,-0.25L24.655,-0.25" style="fill:none;fill-rule:nonzero;stroke:white;stroke-width:0.5px;"/>
    </g>
    <g transform="matrix(0.519458,-0.830958,0.899727,0.479754,31.7468,69.8946)">
        <path d="M0,-0.25L27.037,-0.25" style="fill:none;fill-rule:nonzero;stroke:white;stroke-width:0.5px;"/>
    </g>
    <g transform="matrix(0.502033,0.87543,-0.890952,0.435815,46.3098,47.3003)">
        <path d="M0,-0.25L24.645,-0.25" style="fill:none;fill-rule:nonzero;stroke:white;stroke-width:0.5px;"/>
    </g>
    <g transform="matrix(-1.00838,0.0205445,-0.0236449,-0.989925,58.6824,68.875)">
        <path d="M0,-0.25L24.655,-0.25" style="fill:none;fill-rule:nonzero;stroke:white;stroke-width:0.5px;"/>
    </g>
    <g transform="matrix(0.519458,-0.830958,0.899727,0.479754,126.747,69.8946)">
        <path d="M0,-0.25L27.037,-0.25" style="fill:none;fill-rule:nonzero;stroke:white;stroke-width:0.5px;"/>
    </g>
    <g transform="matrix(0.502033,0.87543,-0.890952,0.435815,141.31,47.3003)">
        <path d="M0,-0.25L24.645,-0.25" style="fill:none;fill-rule:nonzero;stroke:white;stroke-width:0.5px;"/>
    </g>
    <g transform="matrix(-1.00838,0.0205445,-0.0236449,-0.989925,153.682,68.875)">
        <path d="M0,-0.25L24.655,-0.25" style="fill:none;fill-rule:nonzero;stroke:white;stroke-width:0.5px;"/>
    </g>
    <g transform="matrix(0.519458,-0.830958,0.899727,0.479754,76.7468,128.079)">
        <path d="M0,-0.25L27.037,-0.25" style="fill:none;fill-rule:nonzero;stroke:white;stroke-width:0.5px;"/>
    </g>
    <g transform="matrix(0.502033,0.87543,-0.890952,0.435815,91.3098,105.485)">
        <path d="M0,-0.25L24.645,-0.25" style="fill:none;fill-rule:nonzero;stroke:white;stroke-width:0.5px;"/>
    </g>
    <g transform="matrix(-1.00838,0.0205445,-0.0236449,-0.989925,103.682,127.06)">
        <path d="M0,-0.25L24.655,-0.25" style="fill:none;fill-rule:nonzero;stroke:white;stroke-width:0.5px;"/>
    </g>
    <g transform="matrix(0.519458,-0.830958,0.899727,0.479754,79.7468,69.8946)">
        <path d="M0,-0.25L27.037,-0.25" style="fill:none;fill-rule:nonzero;stroke:white;stroke-width:0.5px;"/>
    </g>
    <g transform="matrix(0.502033,0.87543,-0.890952,0.435815,94.3098,47.3003)">
        <path d="M0,-0.25L24.645,-0.25" style="fill:none;fill-rule:nonzero;stroke:white;stroke-width:0.5px;"/>
    </g>
    <g transform="matrix(-1.00838,0.0205445,-0.0236449,-0.989925,106.682,68.875)">
        <path d="M0,-0.25L24.655,-0.25" style="fill:none;fill-rule:nonzero;stroke:white;stroke-width:0.5px;"/>
    </g>
    <g transform="matrix(0.519458,-0.830958,0.899727,0.479754,56.7468,39.417)">
        <path d="M0,-0.25L27.037,-0.25" style="fill:none;fill-rule:nonzero;stroke:white;stroke-width:0.5px;"/>
    </g>
    <g transform="matrix(0.502033,0.87543,-0.890952,0.435815,71.3098,16.8228)">
        <path d="M0,-0.25L24.645,-0.25" style="fill:none;fill-rule:nonzero;stroke:white;stroke-width:0.5px;"/>
    </g>
    <g transform="matrix(-1.00838,0.0205445,-0.0236449,-0.989925,83.6824,38.3975)">
        <path d="M0,-0.25L24.655,-0.25" style="fill:none;fill-rule:nonzero;stroke:white;stroke-width:0.5px;"/>
    </g>
    <g transform="matrix(0.519458,0.830958,0.899727,-0.479754,55.7468,47.4624)">
        <path d="M0,-0.25L27.037,-0.25" style="fill:none;fill-rule:nonzero;stroke:white;stroke-width:0.5px;"/>
    </g>
    <g transform="matrix(0.502033,-0.87543,-0.890952,-0.435815,70.3098,70.0567)">
        <path d="M0,-0.25L24.645,-0.25" style="fill:none;fill-rule:nonzero;stroke:white;stroke-width:0.5px;"/>
    </g>
    <g transform="matrix(-1.00838,-0.0205445,-0.0236449,0.989925,82.6824,48.482)">
        <path d="M0,-0.25L24.655,-0.25" style="fill:none;fill-rule:nonzero;stroke:white;stroke-width:0.5px;"/>
    </g>
    <g transform="matrix(0.519458,0.830958,0.899727,-0.479754,31.7468,76.0928)">
        <path d="M0,-0.25L27.037,-0.25" style="fill:none;fill-rule:nonzero;stroke:white;stroke-width:0.5px;"/>
    </g>
    <g transform="matrix(0.502033,-0.87543,-0.890952,-0.435815,46.3098,98.6871)">
        <path d="M0,-0.25L24.645,-0.25" style="fill:none;fill-rule:nonzero;stroke:white;stroke-width:0.5px;"/>
    </g>
    <g transform="matrix(-1.00838,-0.0205445,-0.0236449,0.989925,58.6824,77.1123)">
        <path d="M0,-0.25L24.655,-0.25" style="fill:none;fill-rule:nonzero;stroke:white;stroke-width:0.5px;"/>
    </g>
    <g transform="matrix(0.519458,0.830958,0.899727,-0.479754,8.74685,47.4624)">
        <path d="M0,-0.25L27.037,-0.25" style="fill:none;fill-rule:nonzero;stroke:white;stroke-width:0.5px;"/>
    </g>
    <g transform="matrix(0.502033,-0.87543,-0.890952,-0.435815,23.3098,70.0567)">
        <path d="M0,-0.25L24.645,-0.25" style="fill:none;fill-rule:nonzero;stroke:white;stroke-width:0.5px;"/>
    </g>
    <g transform="matrix(-1.00838,-0.0205445,-0.0236449,0.989925,35.6824,48.482)">
        <path d="M0,-0.25L24.655,-0.25" style="fill:none;fill-rule:nonzero;stroke:white;stroke-width:0.5px;"/>
    </g>
    <g transform="matrix(0.519458,0.830958,0.899727,-0.479754,32.7468,16.9844)">
        <path d="M0,-0.25L27.037,-0.25" style="fill:none;fill-rule:nonzero;stroke:white;stroke-width:0.5px;"/>
    </g>
    <g transform="matrix(0.502033,-0.87543,-0.890952,-0.435815,47.3098,39.5787)">
        <path d="M0,-0.25L24.645,-0.25" style="fill:none;fill-rule:nonzero;stroke:white;stroke-width:0.5px;"/>
    </g>
    <g transform="matrix(-1.00838,-0.0205445,-0.0236449,0.989925,59.6824,18.0039)">
        <path d="M0,-0.25L24.655,-0.25" style="fill:none;fill-rule:nonzero;stroke:white;stroke-width:0.5px;"/>
    </g>
    <g transform="matrix(0.519458,0.830958,0.899727,-0.479754,150.747,47.4624)">
        <path d="M0,-0.25L27.037,-0.25" style="fill:none;fill-rule:nonzero;stroke:white;stroke-width:0.5px;"/>
    </g>
    <g transform="matrix(0.502033,-0.87543,-0.890952,-0.435815,165.31,70.0567)">
        <path d="M0,-0.25L24.645,-0.25" style="fill:none;fill-rule:nonzero;stroke:white;stroke-width:0.5px;"/>
    </g>
    <g transform="matrix(-1.00838,-0.0205445,-0.0236449,0.989925,177.682,48.482)">
        <path d="M0,-0.25L24.655,-0.25" style="fill:none;fill-rule:nonzero;stroke:white;stroke-width:0.5px;"/>
    </g>
    <g transform="matrix(0.519458,0.830958,0.899727,-0.479754,100.747,105.647)">
        <path d="M0,-0.25L27.037,-0.25" style="fill:none;fill-rule:nonzero;stroke:white;stroke-width:0.5px;"/>
    </g>
    <g transform="matrix(0.502033,-0.87543,-0.890952,-0.435815,115.31,128.241)">
        <path d="M0,-0.25L24.645,-0.25" style="fill:none;fill-rule:nonzero;stroke:white;stroke-width:0.5px;"/>
    </g>
    <g transform="matrix(-1.00838,-0.0205445,-0.0236449,0.989925,127.682,106.667)">
        <path d="M0,-0.25L24.655,-0.25" style="fill:none;fill-rule:nonzero;stroke:white;stroke-width:0.5px;"/>
    </g>
    <g transform="matrix(0.519458,0.830958,0.899727,-0.479754,125.747,77.94)">
        <path d="M0,-0.25L27.037,-0.25" style="fill:none;fill-rule:nonzero;stroke:white;stroke-width:0.5px;"/>
    </g>
    <g transform="matrix(0.502033,-0.87543,-0.890952,-0.435815,140.31,100.534)">
        <path d="M0,-0.25L24.645,-0.25" style="fill:none;fill-rule:nonzero;stroke:white;stroke-width:0.5px;"/>
    </g>
    <g transform="matrix(-1.00838,-0.0205445,-0.0236449,0.989925,152.682,78.9595)">
        <path d="M0,-0.25L24.655,-0.25" style="fill:none;fill-rule:nonzero;stroke:white;stroke-width:0.5px;"/>
    </g>
    <g transform="matrix(0.519458,0.830958,0.899727,-0.479754,103.747,47.4624)">
        <path d="M0,-0.25L27.037,-0.25" style="fill:none;fill-rule:nonzero;stroke:white;stroke-width:0.5px;"/>
    </g>
    <g transform="matrix(0.502033,-0.87543,-0.890952,-0.435815,118.31,70.0567)">
        <path d="M0,-0.25L24.645,-0.25" style="fill:none;fill-rule:nonzero;stroke:white;stroke-width:0.5px;"/>
    </g>
    <g transform="matrix(-1.00838,-0.0205445,-0.0236449,0.989925,130.682,48.482)">
        <path d="M0,-0.25L24.655,-0.25" style="fill:none;fill-rule:nonzero;stroke:white;stroke-width:0.5px;"/>
    </g>
    <g transform="matrix(0.519458,0.830958,0.899727,-0.479754,53.7468,105.647)">
        <path d="M0,-0.25L27.037,-0.25" style="fill:none;fill-rule:nonzero;stroke:white;stroke-width:0.5px;"/>
    </g>
    <g transform="matrix(0.502033,-0.87543,-0.890952,-0.435815,68.3098,128.241)">
        <path d="M0,-0.25L24.645,-0.25" style="fill:none;fill-rule:nonzero;stroke:white;stroke-width:0.5px;"/>
    </g>
    <g transform="matrix(-1.00838,-0.0205445,-0.0236449,0.989925,80.6824,106.667)">
        <path d="M0,-0.25L24.655,-0.25" style="fill:none;fill-rule:nonzero;stroke:white;stroke-width:0.5px;"/>
    </g>
    <g transform="matrix(0.519458,-0.830958,0.899727,0.479754,101.747,39.417)">
        <path d="M0,-0.25L27.037,-0.25" style="fill:none;fill-rule:nonzero;stroke:white;stroke-width:0.5px;"/>
    </g>
    <g transform="matrix(0.502033,0.87543,-0.890952,0.435815,116.31,16.8228)">
        <path d="M0,-0.25L24.645,-0.25" style="fill:none;fill-rule:nonzero;stroke:white;stroke-width:0.5px;"/>
    </g>
    <g transform="matrix(-1.00838,0.0205445,-0.0236449,-0.989925,128.682,38.3975)">
        <path d="M0,-0.25L24.655,-0.25" style="fill:none;fill-rule:nonzero;stroke:white;stroke-width:0.5px;"/>
    </g>
    <g transform="matrix(0.519458,-0.830958,0.899727,0.479754,53.7468,100.372)">
        <path d="M0,-0.25L27.037,-0.25" style="fill:none;fill-rule:nonzero;stroke:white;stroke-width:0.5px;"/>
    </g>
    <g transform="matrix(0.502033,0.87543,-0.890952,0.435815,68.3098,77.7779)">
        <path d="M0,-0.25L24.645,-0.25" style="fill:none;fill-rule:nonzero;stroke:white;stroke-width:0.5px;"/>
    </g>
    <g transform="matrix(-1.00838,0.0205445,-0.0236449,-0.989925,80.6824,99.3526)">
        <path d="M0,-0.25L24.655,-0.25" style="fill:none;fill-rule:nonzero;stroke:white;stroke-width:0.5px;"/>
    </g>
    <g transform="matrix(0.519458,-0.830958,0.899727,0.479754,149.747,39.417)">
        <path d="M0,-0.25L27.037,-0.25" style="fill:none;fill-rule:nonzero;stroke:white;stroke-width:0.5px;"/>
    </g>
    <g transform="matrix(0.502033,0.87543,-0.890952,0.435815,164.31,16.8228)">
        <path d="M0,-0.25L24.645,-0.25" style="fill:none;fill-rule:nonzero;stroke:white;stroke-width:0.5px;"/>
    </g>
    <g transform="matrix(-1.00838,0.0205445,-0.0236449,-0.989925,176.682,38.3975)">
        <path d="M0,-0.25L24.655,-0.25" style="fill:none;fill-rule:nonzero;stroke:white;stroke-width:0.5px;"/>
    </g>
    <g transform="matrix(0.519458,-0.830958,0.899727,0.479754,101.747,100.372)">
        <path d="M0,-0.25L27.037,-0.25" style="fill:none;fill-rule:nonzero;stroke:white;stroke-width:0.5px;"/>
    </g>
    <g transform="matrix(0.502033,0.87543,-0.890952,0.435815,116.31,77.7779)">
        <path d="M0,-0.25L24.645,-0.25" style="fill:none;fill-rule:nonzero;stroke:white;stroke-width:0.5px;"/>
    </g>
    <g transform="matrix(-1.00838,0.0205445,-0.0236449,-0.989925,128.682,99.3526)">
        <path d="M0,-0.25L24.655,-0.25" style="fill:none;fill-rule:nonzero;stroke:white;stroke-width:0.5px;"/>
    </g>
    <g transform="matrix(0.519458,0.830958,0.899727,-0.479754,125.747,16.9844)">
        <path d="M0,-0.25L27.037,-0.25" style="fill:none;fill-rule:nonzero;stroke:white;stroke-width:0.5px;"/>
    </g>
    <g transform="matrix(0.502033,-0.87543,-0.890952,-0.435815,140.31,39.5787)">
        <path d="M0,-0.25L24.645,-0.25" style="fill:none;fill-rule:nonzero;stroke:white;stroke-width:0.5px;"/>
    </g>
    <g transform="matrix(-1.00838,-0.0205445,-0.0236449,0.989925,152.682,18.0039)">
        <path d="M0,-0.25L24.655,-0.25" style="fill:none;fill-rule:nonzero;stroke:white;stroke-width:0.5px;"/>
    </g>
    <g transform="matrix(0.519458,0.830958,0.899727,-0.479754,77.7468,77.94)">
        <path d="M0,-0.25L27.037,-0.25" style="fill:none;fill-rule:nonzero;stroke:white;stroke-width:0.5px;"/>
    </g>
    <g transform="matrix(0.502033,-0.87543,-0.890952,-0.435815,92.3098,100.534)">
        <path d="M0,-0.25L24.645,-0.25" style="fill:none;fill-rule:nonzero;stroke:white;stroke-width:0.5px;"/>
    </g>
    <g transform="matrix(-1.00838,-0.0205445,-0.0236449,0.989925,104.682,78.9595)">
        <path d="M0,-0.25L24.655,-0.25" style="fill:none;fill-rule:nonzero;stroke:white;stroke-width:0.5px;"/>
    </g>
</svg>
