<?xml version="1.0" encoding="UTF-8" standalone="no"?>
<!DOCTYPE svg PUBLIC "-//W3C//DTD SVG 1.1//EN" "http://www.w3.org/Graphics/SVG/1.1/DTD/svg11.dtd">
<svg width="100%" height="100%" viewBox="0 0 149 123" version="1.1" xmlns="http://www.w3.org/2000/svg" xmlns:xlink="http://www.w3.org/1999/xlink" xml:space="preserve" xmlns:serif="http://www.serif.com/" style="fill-rule:evenodd;clip-rule:evenodd;">
    <g transform="matrix(1,0,0,1,-3.89334,-4.38053)">
        <path d="M4.924,62.868L18.969,38.542" style="fill:none;fill-rule:nonzero;stroke:white;stroke-width:0.5px;"/>
    </g>
    <g transform="matrix(1,0,0,1,-3.89334,-4.38053)">
        <path d="M19.924,38.411L32.297,61.772" style="fill:none;fill-rule:nonzero;stroke:white;stroke-width:0.5px;"/>
    </g>
    <g transform="matrix(1,0,0,1,-3.89334,-4.38053)">
        <path d="M32.082,62.139L7.22,62.687" style="fill:none;fill-rule:nonzero;stroke:white;stroke-width:0.5px;"/>
    </g>
    <g transform="matrix(1,0,0,1,-3.89334,-4.38053)">
        <path d="M99.924,62.868L113.968,38.542" style="fill:none;fill-rule:nonzero;stroke:white;stroke-width:0.5px;"/>
    </g>
    <g transform="matrix(1,0,0,1,-3.89334,-4.38053)">
        <path d="M114.925,38.411L127.297,61.772" style="fill:none;fill-rule:nonzero;stroke:white;stroke-width:0.5px;"/>
    </g>
    <g transform="matrix(1,0,0,1,-3.89334,-4.38053)">
        <path d="M127.082,62.139L102.22,62.687" style="fill:none;fill-rule:nonzero;stroke:white;stroke-width:0.5px;"/>
    </g>
    <g transform="matrix(1,0,0,1,-3.89334,-4.38053)">
        <path d="M49.924,125.868L63.969,101.542" style="fill:none;fill-rule:nonzero;stroke:white;stroke-width:0.5px;"/>
    </g>
    <g transform="matrix(1,0,0,1,-3.89334,-4.38053)">
        <path d="M64.924,101.411L77.297,124.772" style="fill:none;fill-rule:nonzero;stroke:white;stroke-width:0.5px;"/>
    </g>
    <g transform="matrix(1,0,0,1,-3.89334,-4.38053)">
        <path d="M77.082,125.139L52.22,125.687" style="fill:none;fill-rule:nonzero;stroke:white;stroke-width:0.5px;"/>
    </g>
    <g transform="matrix(1,0,0,1,-3.89334,-4.38053)">
        <path d="M52.924,62.868L66.969,38.542" style="fill:none;fill-rule:nonzero;stroke:white;stroke-width:0.5px;"/>
    </g>
    <g transform="matrix(1,0,0,1,-3.89334,-4.38053)">
        <path d="M67.925,38.411L80.297,61.772" style="fill:none;fill-rule:nonzero;stroke:white;stroke-width:0.5px;"/>
    </g>
    <g transform="matrix(1,0,0,1,-3.89334,-4.38053)">
        <path d="M80.082,62.139L55.22,62.687" style="fill:none;fill-rule:nonzero;stroke:white;stroke-width:0.5px;"/>
    </g>
    <g transform="matrix(1,0,0,1,-3.89334,-4.38053)">
        <path d="M29.924,29.868L43.969,5.542" style="fill:none;fill-rule:nonzero;stroke:white;stroke-width:0.5px;"/>
    </g>
    <g transform="matrix(1,0,0,1,-3.89334,-4.38053)">
        <path d="M44.925,5.411L57.297,28.772" style="fill:none;fill-rule:nonzero;stroke:white;stroke-width:0.5px;"/>
    </g>
    <g transform="matrix(1,0,0,1,-3.89334,-4.38053)">
        <path d="M57.082,29.139L32.22,29.687" style="fill:none;fill-rule:nonzero;stroke:white;stroke-width:0.5px;"/>
    </g>
    <g transform="matrix(0.5,0.866025,0.866025,-0.5,25.2473,34.3231)">
        <path d="M0,-0.25L28.089,-0.25" style="fill:none;fill-rule:nonzero;stroke:white;stroke-width:0.5px;"/>
    </g>
    <g transform="matrix(0.468044,-0.883705,-0.883705,-0.468044,39.8103,58.7875)">
        <path d="M0,-0.25L26.435,-0.25" style="fill:none;fill-rule:nonzero;stroke:white;stroke-width:0.5px;"/>
    </g>
    <g transform="matrix(-0.999757,-0.0220545,-0.0220545,0.999757,52.1829,35.4271)">
        <path d="M0,-0.25L24.867,-0.25" style="fill:none;fill-rule:nonzero;stroke:white;stroke-width:0.5px;"/>
    </g>
    <g transform="matrix(0.5,0.866025,0.866025,-0.5,1.24728,65.3231)">
        <path d="M0,-0.25L28.089,-0.25" style="fill:none;fill-rule:nonzero;stroke:white;stroke-width:0.5px;"/>
    </g>
    <g transform="matrix(0.468044,-0.883705,-0.883705,-0.468044,15.8103,89.7875)">
        <path d="M0,-0.25L26.435,-0.25" style="fill:none;fill-rule:nonzero;stroke:white;stroke-width:0.5px;"/>
    </g>
    <g transform="matrix(-0.999757,-0.0220545,-0.0220545,0.999757,28.1829,66.4271)">
        <path d="M0,-0.25L24.867,-0.25" style="fill:none;fill-rule:nonzero;stroke:white;stroke-width:0.5px;"/>
    </g>
    <g transform="matrix(0.5,0.866025,0.866025,-0.5,120.248,34.3231)">
        <path d="M0,-0.25L28.089,-0.25" style="fill:none;fill-rule:nonzero;stroke:white;stroke-width:0.5px;"/>
    </g>
    <g transform="matrix(0.468044,-0.883705,-0.883705,-0.468044,134.811,58.7875)">
        <path d="M0,-0.25L26.435,-0.25" style="fill:none;fill-rule:nonzero;stroke:white;stroke-width:0.5px;"/>
    </g>
    <g transform="matrix(-0.999757,-0.0220545,-0.0220545,0.999757,147.183,35.4271)">
        <path d="M0,-0.25L24.867,-0.25" style="fill:none;fill-rule:nonzero;stroke:white;stroke-width:0.5px;"/>
    </g>
    <g transform="matrix(0.5,0.866025,0.866025,-0.5,70.2473,97.3235)">
        <path d="M0,-0.25L28.089,-0.25" style="fill:none;fill-rule:nonzero;stroke:white;stroke-width:0.5px;"/>
    </g>
    <g transform="matrix(0.468044,-0.883705,-0.883705,-0.468044,84.8103,121.787)">
        <path d="M0,-0.25L26.435,-0.25" style="fill:none;fill-rule:nonzero;stroke:white;stroke-width:0.5px;"/>
    </g>
    <g transform="matrix(-0.999757,-0.0220545,-0.0220545,0.999757,97.1827,98.4275)">
        <path d="M0,-0.25L24.867,-0.25" style="fill:none;fill-rule:nonzero;stroke:white;stroke-width:0.5px;"/>
    </g>
    <g transform="matrix(0.5,0.866025,0.866025,-0.5,73.2473,34.3231)">
        <path d="M0,-0.25L28.089,-0.25" style="fill:none;fill-rule:nonzero;stroke:white;stroke-width:0.5px;"/>
    </g>
    <g transform="matrix(0.468044,-0.883705,-0.883705,-0.468044,87.8103,58.7875)">
        <path d="M0,-0.25L26.435,-0.25" style="fill:none;fill-rule:nonzero;stroke:white;stroke-width:0.5px;"/>
    </g>
    <g transform="matrix(-0.999757,-0.0220545,-0.0220545,0.999757,100.183,35.4271)">
        <path d="M0,-0.25L24.867,-0.25" style="fill:none;fill-rule:nonzero;stroke:white;stroke-width:0.5px;"/>
    </g>
    <g transform="matrix(0.5,0.866025,0.866025,-0.5,23.2473,97.3235)">
        <path d="M0,-0.25L28.089,-0.25" style="fill:none;fill-rule:nonzero;stroke:white;stroke-width:0.5px;"/>
    </g>
    <g transform="matrix(0.468044,-0.883705,-0.883705,-0.468044,37.8103,121.787)">
        <path d="M0,-0.25L26.435,-0.25" style="fill:none;fill-rule:nonzero;stroke:white;stroke-width:0.5px;"/>
    </g>
    <g transform="matrix(-0.999757,-0.0220545,-0.0220545,0.999757,50.1829,98.4275)">
        <path d="M0,-0.25L24.867,-0.25" style="fill:none;fill-rule:nonzero;stroke:white;stroke-width:0.5px;"/>
    </g>
    <g transform="matrix(1,0,0,1,-3.89334,-4.38053)">
        <path d="M74.924,29.868L88.969,5.542" style="fill:none;fill-rule:nonzero;stroke:white;stroke-width:0.5px;"/>
    </g>
    <g transform="matrix(1,0,0,1,-3.89334,-4.38053)">
        <path d="M89.925,5.411L102.297,28.772" style="fill:none;fill-rule:nonzero;stroke:white;stroke-width:0.5px;"/>
    </g>
    <g transform="matrix(1,0,0,1,-3.89334,-4.38053)">
        <path d="M102.082,29.139L77.22,29.687" style="fill:none;fill-rule:nonzero;stroke:white;stroke-width:0.5px;"/>
    </g>
    <g transform="matrix(1,0,0,1,-3.89334,-4.38053)">
        <path d="M26.924,95.868L40.969,71.542" style="fill:none;fill-rule:nonzero;stroke:white;stroke-width:0.5px;"/>
    </g>
    <g transform="matrix(1,0,0,1,-3.89334,-4.38053)">
        <path d="M41.925,71.411L54.297,94.772" style="fill:none;fill-rule:nonzero;stroke:white;stroke-width:0.5px;"/>
    </g>
    <g transform="matrix(1,0,0,1,-3.89334,-4.38053)">
        <path d="M54.082,95.139L29.22,95.687" style="fill:none;fill-rule:nonzero;stroke:white;stroke-width:0.5px;"/>
    </g>
    <g transform="matrix(0.5,0.866025,0.866025,-0.5,95.2473,1.32308)">
        <path d="M0,-0.25L28.089,-0.25" style="fill:none;fill-rule:nonzero;stroke:white;stroke-width:0.5px;"/>
    </g>
    <g transform="matrix(0.468044,-0.883705,-0.883705,-0.468044,109.811,25.7875)">
        <path d="M0,-0.25L26.435,-0.25" style="fill:none;fill-rule:nonzero;stroke:white;stroke-width:0.5px;"/>
    </g>
    <g transform="matrix(-0.999757,-0.0220545,-0.0220545,0.999757,122.183,2.42709)">
        <path d="M0,-0.25L24.867,-0.25" style="fill:none;fill-rule:nonzero;stroke:white;stroke-width:0.5px;"/>
    </g>
    <g transform="matrix(0.5,0.866025,0.866025,-0.5,47.2473,67.3231)">
        <path d="M0,-0.25L28.089,-0.25" style="fill:none;fill-rule:nonzero;stroke:white;stroke-width:0.5px;"/>
    </g>
    <g transform="matrix(0.468044,-0.883705,-0.883705,-0.468044,61.8103,91.7875)">
        <path d="M0,-0.25L26.435,-0.25" style="fill:none;fill-rule:nonzero;stroke:white;stroke-width:0.5px;"/>
    </g>
    <g transform="matrix(-0.999757,-0.0220545,-0.0220545,0.999757,74.1829,68.4271)">
        <path d="M0,-0.25L24.867,-0.25" style="fill:none;fill-rule:nonzero;stroke:white;stroke-width:0.5px;"/>
    </g>
    <g transform="matrix(1,0,0,1,-3.89334,-4.38053)">
        <path d="M55.374,60.737L67.182,42.182L78.991,60.737L66.034,60.901L55.374,60.737Z" style="fill:rgb(217,217,217);fill-rule:nonzero;"/>
    </g>
    <g transform="matrix(1,0,0,1,-3.89334,-4.38053)">
        <path d="M31.374,27.556L43.182,9L54.991,27.556L42.034,27.72L31.374,27.556Z" style="fill:rgb(217,217,217);fill-rule:nonzero;"/>
    </g>
    <g transform="matrix(1,0,0,1,-3.89334,-4.38053)">
        <path d="M29.374,92.556L41.182,74L52.991,92.556L40.034,92.72L29.374,92.556Z" style="fill:rgb(217,217,217);fill-rule:nonzero;"/>
    </g>
    <g transform="matrix(1,0,0,1,-3.89334,-4.38053)">
        <path d="M79.374,40.991L91.182,59.546L102.991,40.991L90.034,40.827L79.374,40.991Z" style="fill:rgb(217,217,217);fill-rule:nonzero;"/>
    </g>
    <g transform="matrix(1,0,0,1,-3.89334,-4.38053)">
        <path d="M52.374,73.809L64.182,92.364L75.991,73.809L63.034,73.645L52.374,73.809Z" style="fill:rgb(217,217,217);fill-rule:nonzero;"/>
    </g>
</svg>
